# Blender 3.6.0
# www.blender.org
mtllib fleshing_machine.mtl

o base
v 1.937500 0.750000 1.000000
v 1.937500 0.000000 1.000000
v 1.937500 0.000000 0.000000
v 1.562500 0.750000 1.000000
v 1.562500 0.000000 0.000000
v 1.562500 0.000000 1.000000
v 1.937500 1.000000 0.750000
v 1.937500 1.000000 -0.000000
v 1.562500 1.000000 -0.000000
v 1.562500 1.000000 0.750000
v 1.937500 0.000000 0.750000
v 0.000000 0.000000 1.000000
v 0.000000 0.000000 0.000000
v 0.000000 0.750000 1.000000
v 0.000000 1.000000 0.750000
v 0.000000 1.000000 -0.000000
v 0.000000 0.000000 0.750000
v 0.250000 0.000000 1.000000
v 0.250000 0.000000 0.000000
v 0.250000 0.750000 1.000000
v 0.250000 1.000000 0.750000
v 0.250000 1.000000 -0.000000
v 0.250000 0.000000 0.750000
v 1.562500 0.000000 0.750000
v 1.562500 0.187500 0.875000
v 1.562500 0.187500 0.687500
v 1.562500 0.062500 0.875000
v 1.562500 0.062500 0.687500
v 0.250000 0.187500 0.687500
v 0.250000 0.187500 0.875000
v 0.250000 0.062500 0.687500
v 0.250000 0.062500 0.875000
v 1.562500 1.000000 0.125000
v 1.562500 0.312500 0.125000
v 1.562500 0.312500 -0.000000
v 0.250000 1.000000 0.125000
v 0.250000 0.312500 -0.000000
v 0.250000 0.312500 0.125000
v 1.562500 0.375000 1.000000
v 1.562500 0.375000 0.125000
v 1.562500 0.312500 1.000000
v 0.250000 0.375000 0.125000
v 0.250000 0.375000 1.000000
v 0.250000 0.312500 1.000000
v 2.000000 0.687500 0.687500
v 2.000000 0.687500 0.312500
v 2.000000 0.312500 0.687500
v 2.000000 0.312500 0.312500
v 1.937500 0.687500 0.312500
v 1.937500 0.687500 0.687500
v 1.937500 0.312500 0.312500
v 1.937500 0.312500 0.687500
v 1.562500 1.000000 0.625000
v 1.562500 0.875000 0.625000
v 1.562500 0.875000 0.125000
v 0.250000 1.000000 0.625000
v 0.250000 0.875000 0.125000
v 0.250000 0.875000 0.625000
vt 0.171875 0.000000
vt 0.125000 0.000000
vt 0.125000 0.187500
vt 0.171875 0.187500
vt 0.218750 0.000000
vt 0.171875 0.250000
vt 0.218750 0.250000
vt 0.078125 0.281250
vt 0.125000 0.281250
vt 0.031193 0.531618
vt 0.125219 0.531618
vt -0.000149 0.468934
vt -0.000149 0.280882
vt 0.000000 0.000000
vt 0.031193 0.280882
vt 0.125219 0.280882
vt 0.078125 0.187500
vt 0.281250 0.328125
vt 0.312500 0.328125
vt 0.312500 0.578125
vt 0.281250 0.515625
vt 0.406250 0.578125
vt 0.406250 0.328125
vt 0.156250 0.250000
vt 0.125000 0.250000
vt 0.125000 0.437500
vt 0.156250 0.437500
vt 0.156250 0.500000
vt 0.187500 0.500000
vt 0.187500 0.250000
vt 0.156250 0.515625
vt 0.125000 0.515625
vt 0.125000 0.421875
vt 0.156250 0.421875
vt 0.671875 0.000000
vt 0.671875 0.328125
vt 0.656250 0.328125
vt 0.656250 0.000000
vt 0.632812 0.328125
vt 0.632812 0.000000
vt 0.398438 0.000000
vt 0.398438 0.328125
vt 0.312500 0.000000
vt 0.507812 0.000000
vt 0.507812 0.328125
vt 0.492188 0.328125
vt 0.492188 0.000000
vt 0.601562 0.328125
vt 0.601562 0.000000
vt 0.609375 0.000000
vt 0.609375 0.328125
vt 0.523438 0.328125
vt 0.523438 0.000000
vt 0.390625 0.000000
vt 0.390625 0.328125
vt 0.046875 0.265625
vt 0.046875 0.281250
vt 0.000000 0.281250
vt 0.000000 0.265625
vt 0.000000 0.187500
vt 0.046875 0.187500
vt 0.039062 0.187500
vt 0.039062 0.281250
vt 0.046875 0.203125
vt 0.000000 0.203125
vt 0.007812 0.187500
vt 0.007812 0.281250
vt 0.437500 0.726562
vt 0.601562 0.726562
vt 0.601562 0.742188
vt 0.437500 0.742188
vt 0.421875 0.523438
vt 0.484375 0.523438
vt 0.484375 0.539062
vt 0.421875 0.539062
vt 0.406250 0.000000
vt 0.000000 0.546875
vt 0.062500 0.546875
vt 0.062500 0.562500
vt 0.000000 0.562500
vt 0.468750 0.000000
vt 0.468750 0.328125
vn -0.0000 -0.0000 1.0000
vn -0.0000 -1.0000 -0.0000
vn -0.0000 1.0000 -0.0000
vn -0.0000 0.7071 0.7071
vn -0.0000 -0.0000 -1.0000
vn 0.7071 -0.0000 -0.7071
vn -0.0000 -0.0000 -0.0000
vn -0.7071 -0.0000 0.7071
vn -1.0000 -0.0000 -0.0000
vn 1.0000 -0.0000 -0.0000
vn 1.0000 0.0001 -0.0000
vn -0.0001 0.7071 0.7071
vn -0.0000 -0.9239 -0.3827
usemtl base
f 6/1/1 2/2/1 1/3/1 4/4/1
f 5/5/2 3/1/2 2/6/2 6/7/2
f 10/1/3 7/2/3 8/3/3 9/4/3
f 10/8/4 4/9/4 1/3/4
f 8/7/5 3/5/5 5/1/5 9/6/5
f 3/5/1 8/7/1 8/7/1 3/5/1
f 7/10/6 8/11/7 8/11/8 7/10/7
f 1/12/1 7/10/1 7/10/1 1/12/1
f 2/13/1 1/12/1 1/12/1 2/13/1
f 8/7/1 3/5/1 3/5/1 8/7/1
f 2/14/7 3/14/7 3/14/7 2/14/1
f 8/11/7 7/10/7 7/10/7 8/11/7
f 2/14/8 3/14/7 3/14/6 2/14/7
f 7/10/1 1/12/1 1/12/1 7/10/1
f 1/12/1 2/13/1 2/13/1 1/12/1
f 7/10/1 1/12/1 1/12/1 7/10/1
f 1/12/1 2/13/1 2/13/1 1/12/1
f 3/5/1 8/7/1 8/7/1 3/5/1
f 8/11/2 7/10/9 7/10/3 8/11/10
f 2/13/10 11/15/10 7/10/10 1/12/10
f 8/11/10 7/10/10 11/15/10 3/16/10
f 7/17/11 10/8/1 10/8/9
f 1/3/4 7/17/4 10/8/4
f 10/8/12 4/9/1 4/9/13
f 12/13/9 14/12/9 15/10/9 17/15/9
f 16/11/9 13/16/9 17/15/9 15/10/9
f 18/18/10 23/19/10 21/20/10 20/21/10
f 22/22/10 21/20/10 23/19/10 19/23/10
f 6/18/9 4/21/9 10/20/9 24/19/9
f 9/22/9 5/23/9 24/19/9 10/20/9
f 12/24/1 18/25/1 20/26/1 14/27/1
f 13/28/2 19/29/2 18/30/2 12/24/2
f 15/25/3 21/24/3 22/27/3 16/26/3
f 13/28/5 16/24/5 22/30/5 19/29/5
f 14/31/4 20/32/4 21/33/4 15/34/4
f 28/35/5 31/36/5 29/37/5 26/38/5
f 32/35/1 27/36/1 25/37/1 30/38/1
f 30/38/3 25/37/3 26/39/3 29/40/3
f 31/38/2 28/37/2 27/39/2 32/40/2
f 35/41/5 37/42/5 22/19/5 9/43/5
f 36/44/3 33/45/3 9/46/3 22/47/3
f 37/47/2 35/46/2 34/45/2 38/44/2
f 44/48/1 41/49/1 39/50/1 43/51/1
f 43/40/3 39/39/3 40/52/3 42/53/3
f 38/53/2 34/52/2 41/39/2 44/40/2
f 36/43/1 42/54/1 40/55/1 33/19/1
f 48/56/5 51/57/5 49/58/5 46/59/5
f 47/60/10 48/61/10 46/57/10 45/58/10
f 52/62/1 47/61/1 45/57/1 50/63/1
f 50/61/3 45/64/3 46/65/3 49/60/3
f 51/60/2 48/66/2 47/67/2 52/58/2
f 55/68/5 57/69/5 36/70/5 33/71/5
f 54/72/10 55/73/10 33/74/10 53/75/10
f 58/55/1 54/54/1 53/76/1 56/23/1
f 57/77/9 58/78/9 56/79/9 36/80/9
f 56/23/3 53/76/3 33/81/3 36/82/3
f 57/82/2 55/81/2 54/76/2 58/23/2
