# Blender 3.5.1
# www.blender.org
mtllib beamhouse.mtl

o base
v -1.000000 0.500000 3.000000
v -1.000000 0.500000 -1.000000
v -1.000000 0.000000 3.000000
v -1.000000 -0.000000 -1.000000
v 3.000000 0.500000 -1.000000
v 3.000000 0.500000 3.000000
v 3.000000 -0.000000 -1.000000
v 3.000000 0.000000 3.000000
v 1.437500 0.687500 1.500000
v 1.437500 0.687500 -0.500000
v 1.437500 0.562500 1.500000
v 1.437500 0.562500 -0.500000
v 1.562500 0.687500 -0.500000
v 1.562500 0.687500 1.500000
v 1.562500 0.562500 -0.500000
v 1.562500 0.562500 1.500000
v 1.468750 1.204505 -0.514087
v 1.468750 1.116117 -0.602476
v 1.468750 0.674175 0.016243
v 1.468750 0.585786 -0.072146
v 1.531250 1.116117 -0.602476
v 1.531250 1.204505 -0.514087
v 1.531250 0.585786 -0.072146
v 1.531250 0.674175 0.016243
v 1.468750 1.116117 1.607233
v 1.468750 1.204505 1.518845
v 1.468750 0.585787 1.076903
v 1.468750 0.674175 0.988515
v 1.531250 1.204505 1.518845
v 1.531250 1.116117 1.607233
v 1.531250 0.674175 0.988515
v 1.531250 0.585787 1.076903
v 1.750000 1.750000 1.937500
v 1.750000 1.750000 1.687500
v 1.750000 1.500000 1.937500
v 1.750000 1.500000 1.687500
v 2.375000 1.750000 1.687500
v 2.375000 1.750000 1.937500
v 2.375000 1.500000 1.687500
v 2.375000 1.500000 1.937500
v 2.375000 1.750000 2.000000
v 2.375000 1.500000 2.000000
v 2.625000 1.750000 1.937500
v 2.625000 1.750000 2.000000
v 2.625000 1.500000 1.937500
v 2.625000 1.500000 2.000000
v 2.625000 1.750000 1.687500
v 2.625000 1.500000 1.687500
v 1.468750 1.781250 1.500000
v 1.468750 1.781250 1.437500
v 1.468750 1.718750 1.500000
v 1.468750 1.718750 1.437500
v 1.531250 1.781250 1.437500
v 1.531250 1.781250 1.500000
v 1.531250 1.718750 1.437500
v 1.531250 1.718750 1.500000
v 1.468750 1.781250 -0.437500
v 1.468750 1.781250 -0.500000
v 1.468750 1.718750 -0.437500
v 1.468750 1.718750 -0.500000
v 1.531250 1.781250 -0.500000
v 1.531250 1.781250 -0.437500
v 1.531250 1.718750 -0.500000
v 1.531250 1.718750 -0.437500
v 2.000000 2.000000 3.000000
v 2.000000 2.000000 2.000000
v 2.000000 0.500000 3.000000
v 2.000000 0.500000 2.000000
v 3.000000 2.000000 2.000000
v 3.000000 2.000000 3.000000
v 3.000000 0.500000 2.000000
v -0.500000 1.500000 3.000000
v -0.500000 1.500000 2.000000
v -0.500000 0.500000 3.000000
v -0.500000 0.500000 2.000000
v 1.500000 1.500000 2.000000
v 1.500000 1.500000 3.000000
v 1.500000 0.500000 2.000000
v 1.500000 0.500000 3.000000
v -1.000000 2.000000 1.000000
v -1.000000 2.000000 -1.000000
v -1.000000 0.500000 1.000000
v 0.000000 2.000000 -1.000000
v 0.000000 2.000000 1.000000
v 0.000000 0.500000 -1.000000
v 0.000000 0.500000 1.000000
v 1.250000 2.000000 2.000000
v 1.250000 2.000000 1.625000
v 1.250000 1.250000 2.000000
v 1.250000 1.250000 1.625000
v 1.750000 2.000000 1.625000
v 1.750000 2.000000 2.000000
v 1.750000 1.250000 1.625000
v 1.750000 1.250000 2.000000
v 1.437500 1.812500 1.625000
v 1.437500 1.812500 1.500000
v 1.437500 0.500000 1.625000
v 1.437500 0.500000 1.500000
v 1.562500 1.812500 1.500000
v 1.562500 1.812500 1.625000
v 1.562500 0.500000 1.500000
v 1.562500 0.500000 1.625000
v 1.437500 1.812500 -0.500000
v 1.437500 1.812500 -0.625000
v 1.437500 0.500000 -0.500000
v 1.437500 0.500000 -0.625000
v 1.562500 1.812500 -0.625000
v 1.562500 1.812500 -0.500000
v 1.562500 0.500000 -0.625000
v 1.562500 0.500000 -0.500000
v 0.000000 0.750000 0.625000
v 0.000000 0.750000 0.375000
v 0.000000 0.500000 0.625000
v 0.000000 0.500000 0.375000
v 0.375000 0.750000 0.375000
v 0.375000 0.750000 0.625000
v 0.375000 0.500000 0.375000
v 0.375000 0.500000 0.625000
v 0.375000 0.750000 2.000000
v 0.375000 0.500000 2.000000
v 0.625000 0.750000 0.375000
v 0.625000 0.750000 2.000000
v 0.625000 0.500000 0.375000
v 0.625000 0.500000 2.000000
v -1.000000 2.000000 2.000000
v -1.000000 1.000000 2.000000
v -1.000000 1.000000 1.000000
v -0.500000 2.000000 1.000000
v -0.500000 2.000000 2.000000
v -0.500000 1.000000 1.000000
v -0.500000 1.000000 2.000000
v -0.875000 1.000000 1.875000
v -0.875000 1.000000 1.750000
v -0.875000 0.500000 1.875000
v -0.875000 0.500000 1.750000
v -0.625000 1.000000 1.750000
v -0.625000 1.000000 1.875000
v -0.625000 0.500000 1.750000
v -0.625000 0.500000 1.875000
v -0.875000 1.000000 1.250000
v -0.875000 1.000000 1.125000
v -0.875000 0.500000 1.250000
v -0.875000 0.500000 1.125000
v -0.625000 1.000000 1.125000
v -0.625000 1.000000 1.250000
v -0.625000 0.500000 1.125000
v -0.625000 0.500000 1.250000
vt 0.753846 0.223333
vt 1.000000 0.223333
vt 0.753846 0.436667
vt 0.630769 0.223333
vt 0.876923 0.223333
vt 0.753846 0.196667
vt 1.000000 0.196667
vt 0.876923 0.436667
vt 0.630769 0.196667
vt 0.876923 0.196667
vt 0.507692 0.223333
vt 0.630769 0.436667
vt 0.507692 0.196667
vt 0.953846 0.120000
vt 0.953846 0.013333
vt 0.946154 0.120000
vt 0.946154 0.013333
vt 0.953846 0.000000
vt 0.946154 0.000000
vt 0.965385 0.066667
vt 0.961538 0.066667
vt 0.961538 0.060000
vt 0.961538 0.026667
vt 0.965385 0.026667
vt 0.963462 0.066667
vt 0.963462 0.060000
vt 0.963462 0.026667
vt 0.965385 0.060000
vt 0.992308 1.000000
vt 0.938462 0.006667
vt 0.930769 0.006667
vt 1.000000 1.000000
vt 0.992308 0.986667
vt 1.000000 0.986667
vt 0.930769 0.053333
vt 0.938462 0.053333
vt 0.930769 0.043333
vt 0.930769 0.046667
vt 0.938462 0.043333
vt 0.938462 0.046667
vt 0.946154 0.053333
vt 0.930769 0.040000
vt 0.938462 0.040000
vt 0.946154 0.040000
vt 0.951923 0.010000
vt 0.948077 0.010000
vt 0.948077 0.003333
vt 0.951923 0.003333
vt 0.838462 0.080000
vt 0.869231 0.133333
vt 0.869231 0.080000
vt 0.838462 0.133333
vt 0.838462 0.000000
vt 0.869231 0.000000
vt 0.969231 1.000000
vt 0.776923 0.080000
vt 0.807692 0.080000
vt 0.776923 0.000000
vt 0.969231 0.946667
vt 0.807692 0.000000
vt 1.000000 0.946667
vt 0.900000 0.160000
vt 0.869231 0.106667
vt 0.930769 0.160000
vt 0.869231 0.053333
vt 0.900000 0.106667
vt 0.930769 0.000000
vt 0.938462 0.946667
vt 0.930769 0.106667
vt 0.969231 0.053333
vt 1.000000 0.053333
vt 0.969231 0.000000
vt 1.000000 0.000000
vt 0.938462 1.000000
vt 0.715385 0.160000
vt 0.746154 0.080000
vt 0.776923 0.160000
vt 0.715385 0.080000
vt 0.746154 0.000000
vt 0.838462 0.160000
vt 0.715385 0.000000
vt 0.703846 0.080000
vt 0.715385 0.040000
vt 0.715385 0.106667
vt 0.700000 0.040000
vt 0.703846 0.106667
vt 0.703846 0.040000
vt 0.700000 0.000000
vt 0.961538 0.013333
vt 0.961538 0.120000
vt 0.961538 0.000000
vt 0.938462 0.093333
vt 0.946154 0.093333
vt 0.938462 0.073333
vt 0.946154 0.073333
vt 0.946154 0.086667
vt 0.938462 0.160000
vt 0.946154 0.173333
vt 0.946154 0.186667
vt 0.946154 0.160000
vt 0.938462 0.173333
vt 0.938462 0.086667
vt 0.938462 0.186667
vt 0.969231 0.106667
vt 1.000000 0.026667
vt 0.969231 0.026667
vt 1.000000 0.106667
vt 0.967308 0.013333
vt 0.967308 0.026667
vt 0.963462 0.013333
vt 0.963462 0.000000
vt 0.967308 0.000000
vn -0.0000 -0.0000 -1.0000
vn -1.0000 -0.0000 -0.0000
vn -0.0000 -0.0000 1.0000
vn 1.0000 -0.0000 -0.0000
vn -0.0000 1.0000 -0.0000
vn -0.0000 -1.0000 -0.0000
vn -0.0000 -0.7071 -0.7071
vn -0.0000 0.7071 0.7071
vn -0.0000 0.7071 -0.7071
vn -0.0000 -0.7071 0.7071
usemtl beamhouse
f 4/9/1 2/4/1 5/1/1 7/6/1
f 3/6/2 1/1/2 2/5/2 4/10/2
f 8/10/3 6/5/3 1/2/3 3/7/3
f 7/13/4 5/11/4 6/4/4 8/9/4
f 6/12/5 5/4/5 2/1/5 1/3/5
f 7/1/6 8/3/6 3/8/6 4/5/6
f 12/19/1 10/17/1 13/15/1 15/18/1
f 11/16/2 9/14/2 10/15/2 12/17/2
f 16/19/3 14/17/3 9/15/3 11/18/3
f 15/15/4 13/17/4 14/16/4 16/14/4
f 14/14/5 13/15/5 10/17/5 9/16/5
f 15/15/6 16/14/6 11/16/6 12/17/6
f 20/23/7 18/21/7 21/25/7 23/27/7
f 19/23/2 17/21/2 18/20/2 20/24/2
f 24/27/8 22/25/8 17/20/8 19/24/8
f 23/23/4 21/21/4 22/20/4 24/24/4
f 22/25/9 21/26/9 18/22/9 17/21/9
f 23/28/10 24/20/10 19/25/10 20/26/10
f 28/23/9 26/21/9 29/25/9 31/27/9
f 27/23/2 25/21/2 26/20/2 28/24/2
f 32/27/10 30/25/10 25/20/10 27/24/10
f 31/23/4 29/21/4 30/20/4 32/24/4
f 30/25/8 29/26/8 26/22/8 25/21/8
f 31/28/7 32/20/7 27/25/7 28/26/7
f 36/30/1 34/31/1 37/35/1 39/36/1
f 35/33/2 33/29/2 34/32/2 36/34/2
f 40/35/3 38/36/3 33/30/3 35/31/3
f 39/34/4 37/33/4 38/29/4 40/32/4
f 38/35/5 37/36/5 34/30/5 33/31/5
f 39/36/6 40/35/6 35/31/6 36/30/6
f 40/33/1 38/29/1 43/32/1 45/34/1
f 42/39/2 41/37/2 38/38/2 40/40/2
f 46/34/3 44/33/3 41/29/3 42/32/3
f 45/39/4 43/37/4 44/38/4 46/40/4
f 44/40/5 43/39/5 38/37/5 41/38/5
f 45/39/6 46/40/6 42/38/6 40/37/6
f 39/36/1 37/35/1 47/42/1 48/43/1
f 40/34/2 38/32/2 37/29/2 39/33/2
f 45/34/3 43/32/3 38/29/3 40/33/3
f 48/42/4 47/43/4 43/36/4 45/35/4
f 43/43/5 47/44/5 37/41/5 38/36/5
f 48/44/6 45/43/6 40/36/6 39/41/6
f 52/47/1 50/46/1 53/45/1 55/48/1
f 51/47/2 49/46/2 50/45/2 52/48/2
f 56/47/3 54/46/3 49/45/3 51/48/3
f 55/47/4 53/46/4 54/45/4 56/48/4
f 54/45/5 53/48/5 50/47/5 49/46/5
f 55/48/6 56/45/6 51/46/6 52/47/6
f 60/47/1 58/46/1 61/45/1 63/48/1
f 59/47/2 57/46/2 58/45/2 60/48/2
f 64/47/3 62/46/3 57/45/3 59/48/3
f 63/47/4 61/46/4 62/45/4 64/48/4
f 62/45/5 61/48/5 58/47/5 57/46/5
f 63/48/6 64/45/6 59/46/6 60/47/6
f 68/53/1 66/49/1 69/51/1 71/54/1
f 67/53/2 65/49/2 66/51/2 68/54/2
f 6/60/3 70/57/3 65/49/3 67/53/3
f 71/58/4 69/56/4 70/57/4 6/60/4
f 70/51/5 69/49/5 66/52/5 65/50/5
f 71/59/6 6/61/6 67/32/6 68/55/6
f 75/65/1 73/63/1 76/69/1 78/35/1
f 74/66/2 72/62/2 73/64/2 75/69/2
f 79/54/3 77/65/3 72/35/3 74/67/3
f 78/72/4 76/70/4 77/71/4 79/73/4
f 77/69/5 76/35/5 73/65/5 72/63/5
f 78/32/6 79/74/6 74/68/6 75/61/6
f 2/79/1 81/76/1 83/56/1 85/58/1
f 82/78/2 80/75/2 81/77/2 2/56/2
f 86/81/3 84/78/3 80/76/3 82/79/3
f 85/56/4 83/77/4 84/80/4 86/49/4
f 84/35/5 83/65/5 81/63/5 80/69/5
f 85/68/6 86/61/6 82/32/6 2/74/6
f 90/88/1 88/85/1 91/83/1 93/81/1
f 89/87/2 87/82/2 88/78/2 90/83/2
f 94/88/3 92/85/3 87/83/3 89/81/3
f 93/87/4 91/82/4 92/78/4 94/83/4
f 92/78/5 91/82/5 88/86/5 87/84/5
f 93/82/6 94/78/6 89/84/6 90/86/6
f 98/15/1 96/14/1 99/16/1 101/17/1
f 97/15/2 95/14/2 96/16/2 98/17/2
f 102/89/3 100/90/3 95/14/3 97/15/3
f 101/15/4 99/14/4 100/16/4 102/17/4
f 100/91/5 99/89/5 96/15/5 95/18/5
f 101/89/6 102/91/6 97/18/6 98/15/6
f 106/15/1 104/14/1 107/90/1 109/89/1
f 105/17/2 103/16/2 104/14/2 106/15/2
f 110/17/3 108/16/3 103/14/3 105/15/3
f 109/17/4 107/16/4 108/14/4 110/15/4
f 108/89/5 107/91/5 104/18/5 103/15/5
f 109/91/6 110/89/6 105/15/6 106/18/6
f 114/95/1 112/94/1 115/92/1 117/93/1
f 113/33/2 111/29/2 112/32/2 114/34/2
f 118/95/3 116/94/3 111/92/3 113/93/3
f 117/33/4 115/29/4 116/32/4 118/34/4
f 116/95/5 115/94/5 112/92/5 111/93/5
f 117/94/6 118/95/6 113/93/6 114/92/6
f 117/99/1 115/98/1 121/101/1 123/103/1
f 120/95/2 119/94/2 115/97/2 117/100/2
f 124/33/3 122/29/3 119/32/3 120/34/3
f 123/95/4 121/94/4 122/97/4 124/100/4
f 122/102/5 121/101/5 115/98/5 119/96/5
f 123/101/6 124/102/6 120/96/6 117/98/6
f 127/105/1 80/106/1 128/70/1 130/71/1
f 126/70/2 125/104/2 80/107/2 127/71/2
f 131/70/3 129/71/3 125/105/3 126/106/3
f 130/72/4 128/70/4 129/71/4 131/73/4
f 129/70/5 128/71/5 80/105/5 125/106/5
f 130/71/6 131/70/6 126/106/6 127/105/6
f 135/91/1 133/23/1 136/106/1 138/72/1
f 134/111/2 132/27/2 133/109/2 135/112/2
f 139/91/3 137/23/3 132/106/3 134/72/3
f 138/111/4 136/27/4 137/109/4 139/112/4
f 137/112/5 136/111/5 133/110/5 132/108/5
f 138/111/6 139/112/6 134/108/6 135/110/6
f 143/91/1 141/23/1 144/106/1 146/72/1
f 142/111/2 140/27/2 141/109/2 143/112/2
f 147/91/3 145/23/3 140/106/3 142/72/3
f 146/111/4 144/27/4 145/109/4 147/112/4
f 145/112/5 144/111/5 141/110/5 140/108/5
f 146/111/6 147/112/6 142/108/6 143/110/6
