# Blender 3.5.1
# www.blender.org
mtllib grist_mill.mtl
o rod
v 1.062500 0.062500 0.062499
v 1.062500 0.062500 -0.062501
v 1.062500 -0.062500 0.062499
v 1.062500 -0.062500 -0.062501
v -1.062500 0.062500 -0.062501
v -1.062500 0.062500 0.062499
v -1.062500 -0.062500 -0.062501
v -1.062500 -0.062500 0.062499
v 0.583109 -0.346719 0.030523
v 0.645609 -0.346719 0.030523
v 0.583109 -0.346719 -0.031977
v 0.645609 -0.346719 -0.031977
v 0.583109 -0.346719 -0.031977
v 0.583109 -0.346719 0.030523
v 0.645609 -0.346719 0.030523
v 0.645609 -0.346719 -0.031977
v 0.583109 0.340650 -0.031977
v 0.583109 0.340650 0.030523
v 0.645609 0.340650 0.030523
v 0.645609 0.340650 -0.031977
v 0.583109 -0.346719 0.030523
v 0.645609 -0.346719 0.030523
v 0.583109 -0.346719 -0.031977
v 0.645609 -0.346719 -0.031977
v 0.583109 -0.346719 -0.031977
v 0.583109 -0.346719 0.030523
v 0.645609 -0.346719 0.030523
v 0.645609 -0.346719 -0.031977
v 0.583109 0.340650 -0.031977
v 0.583109 0.340650 0.030523
v 0.645609 0.340650 0.030523
v 0.645609 0.340650 -0.031977
v 0.583109 -0.032553 -0.341107
v 0.645609 -0.032553 -0.341107
v 0.583109 0.029947 -0.341107
v 0.645609 0.029947 -0.341107
v 0.583109 0.029947 -0.341107
v 0.583109 -0.032553 -0.341107
v 0.645609 -0.032553 -0.341107
v 0.645609 0.029947 -0.341107
v 0.583109 0.029947 0.346261
v 0.583109 -0.032553 0.346261
v 0.645609 -0.032553 0.346261
v 0.645609 0.029947 0.346261
v 0.583109 0.220707 -0.265320
v 0.645609 0.220707 -0.265320
v 0.583109 0.264901 -0.221125
v 0.645609 0.264901 -0.221125
v 0.583109 0.264901 -0.221125
v 0.583109 0.220707 -0.265320
v 0.645609 0.220707 -0.265320
v 0.645609 0.264901 -0.221125
v 0.583109 -0.221142 0.264917
v 0.583109 -0.265336 0.220723
v 0.645609 -0.265336 0.220723
v 0.645609 -0.221142 0.264917
v 0.583109 -0.264889 -0.220320
v 0.645609 -0.264889 -0.220320
v 0.583109 -0.220695 -0.264514
v 0.645609 -0.220695 -0.264514
v 0.583109 -0.220695 -0.264514
v 0.583109 -0.264889 -0.220320
v 0.645609 -0.264889 -0.220320
v 0.645609 -0.220695 -0.264514
v 0.583109 0.265348 0.221529
v 0.583109 0.221154 0.265723
v 0.645609 0.221154 0.265723
v 0.645609 0.265348 0.221529
v 0.623931 -0.001179 -0.404213
v 0.623931 0.286083 -0.285225
v 0.623931 0.405071 0.002038
v 0.623931 0.286083 0.289300
v 0.623931 -0.001179 0.408287
v 0.623931 -0.288441 0.289300
v 0.623931 -0.407429 0.002037
v 0.623931 -0.288441 -0.285225
v 0.623931 0.238251 -0.237393
v 0.623931 -0.001179 -0.336568
v 0.623931 0.337427 0.002037
v 0.623931 0.238251 0.241468
v 0.623931 -0.001179 0.340643
v 0.623931 -0.240609 0.241468
v 0.623931 -0.339784 0.002038
v 0.623931 -0.240609 -0.237393
v 0.811435 0.238251 -0.237393
v 0.811435 -0.001179 -0.336568
v 0.811435 0.337427 0.002037
v 0.811435 0.238251 0.241468
v 0.811435 -0.001179 0.340643
v 0.811435 -0.240609 0.241468
v 0.811435 -0.339784 0.002038
v 0.811435 -0.240609 -0.237393
v 0.811435 0.286083 -0.285225
v 0.811435 -0.001179 -0.404213
v 0.811435 0.405071 0.002038
v 0.811435 0.286083 0.289300
v 0.811435 -0.001179 0.408287
v 0.811435 -0.288441 0.289300
v 0.811435 -0.407429 0.002037
v 0.811435 -0.288441 -0.285225
v 0.436427 0.238251 -0.237393
v 0.436427 -0.001179 -0.336568
v 0.436427 0.337427 0.002037
v 0.436427 0.238251 0.241468
v 0.436427 -0.001179 0.340643
v 0.436427 -0.240609 0.241468
v 0.436427 -0.339784 0.002038
v 0.436427 -0.240609 -0.237393
v 0.436427 0.286083 -0.285225
v 0.436427 -0.001179 -0.404213
v 0.436427 0.405071 0.002038
v 0.436427 0.286083 0.289300
v 0.436427 -0.001179 0.408287
v 0.436427 -0.288441 0.289300
v 0.436427 -0.407429 0.002037
v 0.436427 -0.288441 -0.285225
v 0.623931 0.238251 -0.237393
v 0.623931 -0.001179 -0.336568
v 0.623931 0.337427 0.002037
v 0.623931 -0.339784 0.002038
v 0.623931 -0.240609 -0.237393
vn -0.0000 -0.0000 -1.0000
vn 1.0000 -0.0000 -0.0000
vn -0.0000 -0.0000 1.0000
vn -1.0000 -0.0000 -0.0000
vn -0.0000 1.0000 -0.0000
vn -0.0000 -1.0000 -0.0000
vn -0.0000 -0.0000 -0.0000
vn -0.0000 0.7071 -0.7071
vn -0.0000 -0.7071 -0.7071
vn -0.0000 -0.7071 0.7071
vn -0.0000 0.7071 0.7071
vn -0.0000 -0.9239 -0.3827
vn -0.0000 0.9239 -0.3827
vn -0.0000 -0.9239 0.3827
vn -0.0000 0.3827 -0.9239
vn -0.0000 -0.3827 -0.9239
vn -0.0000 -0.3827 0.9239
vn -0.0000 0.3827 0.9239
vn -0.0000 0.9239 0.3827
vt 0.732692 0.756667
vt 0.728846 0.763333
vt 0.728846 0.756667
vt 0.732692 0.750000
vt 0.794231 0.763333
vt 0.728846 0.750000
vt 0.794231 0.756667
vt 0.663462 0.756667
vt 0.798077 0.756667
vt 0.659615 0.756667
vt 0.663462 0.763333
vt 0.663462 0.750000
vt 0.728846 0.756667
vt 0.798077 0.750000
vt 0.659615 0.750000
vt 0.728846 0.763333
vt 0.000000 0.000000
vt 1.000000 0.000000
vt 0.000000 1.000000
vt 1.000000 1.000000
vt 0.000000 1.000000
vt 0.670986 0.762455
vt 0.749255 0.751733
vt 0.725553 0.762606
vt 0.000000 0.000000
vt 0.670986 0.751072
vt 0.725553 0.751223
vt 1.000000 0.000000
vt 0.694907 0.762366
vt 1.000000 1.000000
vt 0.694907 0.750983
vt 0.749255 0.763116
vt 0.999899 0.999900
vt 0.712654 0.762455
vt 0.790923 0.751733
vt 0.767221 0.762606
vt 0.000100 0.999900
vt 0.712654 0.751072
vt 0.767221 0.751223
vt 0.000100 0.000100
vt 0.736575 0.762366
vt 0.999899 0.000100
vt 0.736575 0.750983
vt 0.790923 0.763116
vt 0.637110 0.774777
vt 0.000000 0.000000
vt 0.654343 0.774777
vt 1.000000 0.000000
vt 0.637110 0.803662
vt 0.000000 1.000000
vt 0.654343 0.803662
vt 1.000000 1.000000
vt 0.000000 1.000000
vt 0.670986 0.762455
vt 0.749255 0.751733
vt 0.725553 0.762606
vt 0.000000 0.000000
vt 0.670986 0.751072
vt 0.725553 0.751223
vt 1.000000 0.000000
vt 0.694907 0.762366
vt 1.000000 1.000000
vt 0.694907 0.750983
vt 0.749255 0.763116
vt 0.684299 0.801623
vt 0.712654 0.762455
vt 0.790923 0.751733
vt 0.767221 0.762606
vt 0.670624 0.801623
vt 0.712654 0.751072
vt 0.767221 0.751223
vt 0.670624 0.776816
vt 0.736575 0.762366
vt 0.684299 0.776816
vt 0.736575 0.750983
vt 0.790923 0.763116
vt 0.654135 0.775452
vt 0.000000 0.000000
vt 0.669446 0.775452
vt 1.000000 0.000000
vt 0.654135 0.801120
vt 0.000000 1.000000
vt 0.669446 0.801120
vt 1.000000 1.000000
vt 0.000000 1.000000
vt 0.670986 0.762455
vt 0.749255 0.751733
vt 0.725553 0.762606
vt 0.000000 0.000000
vt 0.670986 0.751072
vt 0.725553 0.751223
vt 1.000000 0.000000
vt 0.694907 0.762366
vt 1.000000 1.000000
vt 0.694907 0.750983
vt 0.749255 0.763116
vt 0.644838 0.798688
vt 0.712654 0.762455
vt 0.790923 0.751733
vt 0.767221 0.762606
vt 0.631814 0.798688
vt 0.712654 0.751072
vt 0.767221 0.751223
vt 0.631814 0.777445
vt 0.736575 0.762366
vt 0.644838 0.777445
vt 0.736575 0.750983
vt 0.790923 0.763116
vt 0.664160 0.773366
vt 0.000000 0.000000
vt 0.683884 0.773366
vt 1.000000 0.000000
vt 0.664160 0.806471
vt 0.000000 1.000000
vt 0.683884 0.806471
vt 1.000000 1.000000
vt 0.000000 1.000000
vt 0.670986 0.762455
vt 0.749255 0.751733
vt 0.725553 0.762606
vt 0.000000 0.000000
vt 0.670986 0.751072
vt 0.725553 0.751223
vt 1.000000 0.000000
vt 0.694907 0.762366
vt 1.000000 1.000000
vt 0.694907 0.750983
vt 0.749255 0.763116
vt 0.686854 0.804479
vt 0.712654 0.762455
vt 0.790923 0.751733
vt 0.767221 0.762606
vt 0.669257 0.804479
vt 0.712654 0.751072
vt 0.767221 0.751223
vt 0.669257 0.776537
vt 0.736575 0.762366
vt 0.686854 0.776537
vt 0.736575 0.750983
vt 0.790923 0.763116
vt 0.655172 0.775772
vt 0.000000 0.000000
vt 0.671073 0.775772
vt 1.000000 0.000000
vt 0.655172 0.801231
vt 0.000000 1.000000
vt 0.671073 0.801231
vt 1.000000 1.000000
vt 0.000000 1.000000
vt 0.670986 0.762455
vt 0.749255 0.751733
vt 0.725553 0.762606
vt 0.000000 0.000000
vt 0.670986 0.751072
vt 0.725553 0.751223
vt 1.000000 0.000000
vt 0.694907 0.762366
vt 1.000000 1.000000
vt 0.694907 0.750983
vt 0.749255 0.763116
vt 0.732908 0.805095
vt 0.712654 0.762455
vt 0.790923 0.751733
vt 0.767221 0.762606
vt 0.714242 0.805095
vt 0.712654 0.751072
vt 0.767221 0.751223
vt 0.714242 0.775636
vt 0.736575 0.762366
vt 0.732908 0.775636
vt 0.736575 0.750983
vt 0.790923 0.763116
vt 0.691157 0.789878
vt 0.626848 0.789292
vt 0.671543 0.789292
vt 0.703147 0.789292
vt 0.647264 0.787651
vt 0.691959 0.787651
vt 0.723563 0.787651
vt 0.658772 0.790023
vt 0.703468 0.790023
vt 0.614857 0.789878
vt 0.735072 0.790023
vt 0.659552 0.789878
vt 0.761414 0.790023
vt 0.723563 0.787651
vt 0.798667 0.790023
vt 0.735072 0.790023
vt 0.766742 0.789292
vt 0.729489 0.789292
vt 0.703147 0.789292
vt 0.754751 0.789878
vt 0.717498 0.789878
vt 0.691157 0.789878
vt 0.787158 0.787651
vt 0.749905 0.787651
vt 0.674677 0.787952
vt 0.761414 0.805573
vt 0.644806 0.787492
vt 0.738173 0.801070
vt 0.723563 0.803201
vt 0.798667 0.805573
vt 0.704549 0.788412
vt 0.735072 0.805573
vt 0.766742 0.804841
vt 0.734421 0.788872
vt 0.729489 0.804841
vt 0.764292 0.789332
vt 0.618686 0.799230
vt 0.703147 0.804841
vt 0.754751 0.805428
vt 0.648558 0.799690
vt 0.717498 0.805428
vt 0.678429 0.800150
vt 0.691157 0.805428
vt 0.787158 0.803201
vt 0.708301 0.800610
vt 0.749905 0.803201
vt 0.657545 0.776276
vt 0.671543 0.804841
vt 0.621730 0.775532
vt 0.762643 0.791386
vt 0.691157 0.805428
vt 0.626848 0.804841
vt 0.693360 0.777021
vt 0.703147 0.804841
vt 0.647264 0.803201
vt 0.729175 0.777766
vt 0.691959 0.803201
vt 0.764990 0.778510
vt 0.619383 0.788408
vt 0.723563 0.803201
vt 0.658772 0.805573
vt 0.655198 0.789152
vt 0.703468 0.805573
vt 0.691013 0.789897
vt 0.614857 0.805428
vt 0.735072 0.805573
vt 0.726828 0.790642
vt 0.659552 0.805428
vt 0.761414 0.774473
vt 0.745258 0.790150
vt 0.798667 0.774473
vt 0.723563 0.772102
vt 0.717494 0.790150
vt 0.766742 0.773742
vt 0.735072 0.774473
vt 0.773021 0.790150
vt 0.678387 0.776741
vt 0.706151 0.776741
vt 0.729489 0.773742
vt 0.733915 0.776741
vt 0.703147 0.773742
vt 0.754751 0.774328
vt 0.761678 0.776741
vt 0.717498 0.774328
vt 0.789442 0.776741
vt 0.661966 0.790150
vt 0.691157 0.774328
vt 0.787158 0.772102
vt 0.689730 0.790150
vt 0.749905 0.772102
vt 0.671543 0.773742
vt 0.763945 0.801718
vt 0.626848 0.773742
vt 0.691157 0.774328
vt 0.730842 0.801718
vt 0.703147 0.773742
vt 0.797048 0.801718
vt 0.659700 0.788309
vt 0.647264 0.772102
vt 0.692803 0.788309
vt 0.691959 0.772102
vt 0.725906 0.788309
vt 0.723563 0.772102
vt 0.658772 0.774473
vt 0.759009 0.788309
vt 0.703468 0.774473
vt 0.614857 0.774328
vt 0.792112 0.788309
vt 0.664636 0.801718
vt 0.735072 0.774473
vt 0.659552 0.774328
vt 0.697739 0.801718
s 0
usemtl grist_mill
f 4/6/1 7/12/1 5/8/1 2/3/1
f 3/4/2 4/6/2 2/3/2 1/1/2
f 8/14/3 3/4/3 1/1/3 6/9/3
f 7/12/4 8/15/4 6/10/4 5/8/4
f 6/11/5 1/2/5 2/3/5 5/8/5
f 7/13/6 4/7/6 3/5/6 8/16/6
f 9/17/6 11/19/6 12/20/6 10/18/6
f 14/24/3 15/27/3 19/39/3 18/36/3
f 9/17/3 10/18/3 15/28/3 14/25/3
f 10/18/7 12/20/7 16/30/7 15/28/7
f 11/19/7 9/17/7 14/25/7 13/21/7
f 12/20/3 11/19/3 13/21/3 16/30/3
f 18/37/5 19/40/5 20/42/5 17/33/5
f 15/29/2 16/31/2 20/43/2 19/41/2
f 13/22/4 14/26/4 18/38/4 17/34/4
f 16/32/1 13/23/1 17/35/1 20/44/1
f 21/45/6 23/49/6 24/51/6 22/47/6
f 26/56/3 27/59/3 31/71/3 30/68/3
f 21/46/3 22/48/3 27/60/3 26/57/3
f 22/48/7 24/52/7 28/62/7 27/60/7
f 23/50/7 21/46/7 26/57/7 25/53/7
f 24/52/3 23/50/3 25/53/3 28/62/3
f 30/69/5 31/72/5 32/74/5 29/65/5
f 27/61/2 28/63/2 32/75/2 31/73/2
f 25/54/4 26/58/4 30/70/4 29/66/4
f 28/64/1 25/55/1 29/67/1 32/76/1
f 33/77/1 35/81/1 36/83/1 34/79/1
f 38/88/6 39/91/6 43/103/6 42/100/6
f 33/78/3 34/80/3 39/92/3 38/89/3
f 34/80/3 36/84/3 40/94/3 39/92/3
f 35/82/3 33/78/3 38/89/3 37/85/3
f 36/84/3 35/82/3 37/85/3 40/94/3
f 42/101/3 43/104/3 44/106/3 41/97/3
f 39/93/2 40/95/2 44/107/2 43/105/2
f 37/86/4 38/90/4 42/102/4 41/98/4
f 40/96/5 37/87/5 41/99/5 44/108/5
f 45/109/8 47/113/8 48/115/8 46/111/8
f 50/120/9 51/123/9 55/135/9 54/132/9
f 45/110/3 46/112/3 51/124/3 50/121/3
f 46/112/3 48/116/3 52/126/3 51/124/3
f 47/114/3 45/110/3 50/121/3 49/117/3
f 48/116/3 47/114/3 49/117/3 52/126/3
f 54/133/10 55/136/10 56/138/10 53/129/10
f 51/125/2 52/127/2 56/139/2 55/137/2
f 49/118/4 50/122/4 54/134/4 53/130/4
f 52/128/11 49/119/11 53/131/11 56/140/11
f 57/141/9 59/145/9 60/147/9 58/143/9
f 62/152/10 63/155/10 67/167/10 66/164/10
f 57/142/3 58/144/3 63/156/3 62/153/3
f 58/144/3 60/148/3 64/158/3 63/156/3
f 59/146/3 57/142/3 62/153/3 61/149/3
f 60/148/3 59/146/3 61/149/3 64/158/3
f 66/165/11 67/168/11 68/170/11 65/161/11
f 63/157/2 64/159/2 68/171/2 67/169/2
f 61/150/4 62/154/4 66/166/4 65/162/4
f 64/160/8 61/151/8 65/163/8 68/172/8
f 79/189/12 80/190/12 104/251/12 103/246/12
f 71/176/13 70/175/13 109/263/13 111/268/13
f 77/185/14 79/188/14 103/247/14 101/241/14
f 70/175/15 69/174/15 110/265/15 109/263/15
f 69/173/16 76/184/16 116/283/16 110/266/16
f 78/187/17 77/185/17 101/241/17 102/243/17
f 84/196/18 78/186/18 102/244/18 108/262/18
f 76/184/12 75/182/12 115/279/12 116/283/12
f 85/197/2 86/199/2 94/221/2 93/219/2
f 87/203/2 85/197/2 93/219/2 95/225/2
f 88/206/2 87/203/2 95/225/2 96/228/2
f 89/208/2 88/206/2 96/228/2 97/230/2
f 90/212/2 89/209/2 97/231/2 98/234/2
f 91/214/2 90/212/2 98/234/2 99/236/2
f 92/217/2 91/214/2 99/236/2 100/239/2
f 86/200/2 92/217/2 100/239/2 94/222/2
f 75/182/12 76/184/12 100/240/12 99/237/12
f 78/186/18 84/196/18 92/218/18 86/201/18
f 77/185/17 78/187/17 86/202/17 85/198/17
f 76/184/16 69/173/16 94/223/16 100/240/16
f 69/174/15 70/175/15 93/220/15 94/224/15
f 79/188/14 77/185/14 85/198/14 87/204/14
f 70/175/13 71/176/13 95/226/13 93/220/13
f 80/190/12 79/189/12 87/205/12 88/207/12
f 71/177/19 72/178/19 96/229/19 95/227/19
f 81/191/16 80/190/16 88/207/16 89/210/16
f 72/178/18 73/179/18 97/232/18 96/229/18
f 82/193/15 81/192/15 89/211/15 90/213/15
f 73/180/17 74/181/17 98/235/17 97/233/17
f 83/194/13 82/193/13 90/213/13 91/215/13
f 74/181/14 75/183/14 99/238/14 98/235/14
f 84/196/19 83/195/19 91/216/19 92/218/19
f 101/242/4 109/264/4 110/267/4 102/245/4
f 103/248/4 111/269/4 109/264/4 101/242/4
f 104/250/4 112/272/4 111/270/4 103/249/4
f 105/252/4 113/274/4 112/272/4 104/250/4
f 106/255/4 114/277/4 113/274/4 105/252/4
f 107/257/4 115/280/4 114/277/4 106/255/4
f 108/261/4 116/284/4 115/281/4 107/258/4
f 102/245/4 110/267/4 116/284/4 108/261/4
f 72/178/19 71/177/19 111/271/19 112/273/19
f 80/190/16 81/191/16 105/253/16 104/251/16
f 73/179/18 72/178/18 112/273/18 113/275/18
f 81/192/15 82/193/15 106/256/15 105/254/15
f 74/181/17 73/180/17 113/276/17 114/278/17
f 82/193/13 83/194/13 107/259/13 106/256/13
f 75/183/14 74/181/14 114/278/14 115/282/14
f 83/195/19 84/196/19 108/262/19 107/260/19
l 77 117
l 78 118
l 79 119
l 83 120
l 84 121
