# Blender 3.5.1
# www.blender.org
mtllib grist_mill.mtl

o base
v -1.000000 0.500000 2.000000
v -1.000000 0.500000 -1.000000
v -1.000000 0.000000 2.000000
v -1.000000 -0.000000 -1.000000
v 3.000000 0.500000 -1.000000
v 3.000000 0.500000 2.000000
v 3.000000 -0.000000 -1.000000
v 3.000000 0.000000 2.000000
v 1.000000 2.000000 1.500000
v 1.000000 2.000000 -0.500000
v 1.000000 0.500000 1.500000
v 1.000000 0.500000 -0.500000
v 2.000000 2.000000 -0.500000
v 2.000000 2.000000 1.500000
v 2.000000 0.500000 -0.500000
v 2.000000 0.500000 1.500000
v 2.000000 1.250000 1.000000
v 2.000000 1.250000 -0.000000
v 2.000000 0.500000 1.000000
v 2.000000 0.500000 -0.000000
v 3.000000 1.250000 -0.000000
v 3.000000 1.250000 1.000000
v 3.000000 0.500000 -0.000000
v 3.000000 0.500000 1.000000
v 0.000000 1.250000 -0.000000
v 0.000000 1.250000 1.000000
v 0.000000 0.500000 -0.000000
v 0.000000 0.500000 1.000000
v -1.000000 1.250000 1.000000
v -1.000000 1.250000 -0.000000
v -1.000000 0.500000 1.000000
v -1.000000 0.500000 -0.000000
v 1.062437 2.437562 0.937562
v 1.062437 2.437562 0.062437
v 1.062437 2.312438 0.937562
v 1.062437 2.312438 0.062437
v 1.937562 2.437562 0.062437
v 1.937562 2.437562 0.937562
v 1.937562 2.312438 0.062437
v 1.937562 2.312438 0.937562
v -0.937500 1.312500 0.687500
v -0.937500 1.312500 0.312500
v -0.937500 1.687500 0.687500
v -0.937500 1.687500 0.312500
v -1.000000 1.312500 0.312500
v -1.000000 1.312500 0.687500
v -1.000000 1.687500 0.312500
v -1.000000 1.687500 0.687500
v 1.000000 1.000000 2.000000
v 1.000000 1.000000 1.000000
v 1.000000 0.500000 2.000000
v 1.000000 0.500000 1.000000
v 2.000000 1.000000 1.000000
v 2.000000 1.000000 2.000000
v 2.000000 0.500000 2.000000
v 2.000000 1.000000 1.500000
v 1.000000 2.000000 -1.000000
v 2.000000 2.000000 -1.000000
v 1.000000 1.000000 -1.000000
v 2.000000 1.000000 -1.000000
v 2.000000 1.000000 -0.500000
v 1.000000 1.000000 -0.500000
v 0.750000 1.250000 1.500000
v 0.750000 1.250000 -0.500000
v 0.750000 0.500000 1.500000
v 0.750000 0.500000 -0.500000
v 1.000000 1.250000 -0.500000
v 1.000000 1.250000 1.500000
v -0.312500 1.250000 1.500000
v -0.312500 1.250000 -0.500000
v -0.312500 0.500000 1.500000
v -0.312500 0.500000 -0.500000
v -0.062500 1.250000 -0.500000
v -0.062500 1.250000 1.500000
v -0.062500 0.500000 -0.500000
v -0.062500 0.500000 1.500000
v -0.062500 1.250000 0.500000
v -0.062500 1.250000 -0.000000
v -0.062500 1.250000 1.000000
v -0.312500 1.250000 0.500000
v -0.312500 1.250000 1.000000
v -0.312500 1.250000 -0.000000
v -0.312500 0.875000 0.500000
v -0.062500 0.875000 0.500000
v -0.062500 1.250000 -0.031250
v -0.062500 1.250000 -0.281250
v -0.062500 0.500000 -0.031250
v -0.062500 0.500000 -0.281250
v 0.750000 1.250000 -0.281250
v 0.750000 1.250000 -0.031250
v 0.750000 0.500000 -0.281250
v 0.750000 0.500000 -0.031250
v -0.062500 1.250000 1.281250
v -0.062500 1.250000 1.031250
v -0.062500 0.500000 1.281250
v -0.062500 0.500000 1.031250
v 0.750000 1.250000 1.031250
v 0.750000 1.250000 1.281250
v 0.750000 0.500000 1.031250
v 0.750000 0.500000 1.281250
v 1.750000 1.000000 -0.875000
v 1.875000 1.000000 -0.875000
v 1.750000 0.250000 -0.875000
v 1.875000 0.250000 -0.875000
v 1.875000 1.000000 -0.625000
v 1.750000 1.000000 -0.625000
v 1.875000 0.250000 -0.625000
v 1.750000 0.250000 -0.625000
v 1.125000 1.000000 -0.875000
v 1.250000 1.000000 -0.875000
v 1.125000 0.250000 -0.875000
v 1.250000 0.250000 -0.875000
v 1.250000 1.000000 -0.625000
v 1.125000 1.000000 -0.625000
v 1.250000 0.250000 -0.625000
v 1.125000 0.250000 -0.625000
v 2.062500 1.750000 0.968750
v 2.062500 1.750000 0.031250
v 2.062500 1.250000 0.968750
v 2.062500 1.250000 0.031250
v 2.937500 1.750000 0.031250
v 2.937500 1.750000 0.968750
v 2.937500 1.250000 0.031250
v 2.937500 1.250000 0.968750
v -0.062500 1.750000 0.031250
v -0.062500 1.750000 0.968750
v -0.062500 1.250000 0.031250
v -0.062500 1.250000 0.968750
v -0.937500 1.750000 0.968750
v -0.937500 1.750000 0.031250
v -0.937500 1.250000 0.968750
v -0.937500 1.250000 0.031250
v 1.125000 3.000000 0.125000
v 1.125000 3.000000 -0.000000
v 1.125000 2.000000 0.125000
v 1.125000 2.000000 -0.000000
v 2.000000 3.000000 -0.000000
v 2.000000 3.000000 0.125000
v 2.000000 2.000000 -0.000000
v 2.000000 2.000000 0.125000
v 1.125000 3.000000 0.875000
v 1.000000 3.000000 0.875000
v 1.125000 2.000000 0.875000
v 1.000000 2.000000 0.875000
v 1.000000 3.000000 -0.000000
v 1.000000 2.000000 -0.000000
v 1.000000 3.000000 1.000000
v 1.000000 2.000000 1.000000
v 1.875000 3.000000 0.875000
v 1.875000 3.000000 1.000000
v 1.875000 2.000000 0.875000
v 1.875000 2.000000 1.000000
v 1.875000 3.000000 0.125000
v 1.875000 2.000000 0.125000
v 2.000000 3.000000 1.000000
v 2.000000 2.000000 1.000000
v 1.500000 1.000000 1.500000
vt 0.876923 0.223333
vt 0.784615 0.383333
vt 0.784615 0.223333
vt 0.876923 0.196667
vt 0.907692 0.383333
vt 0.784615 0.196667
vt 0.907692 0.223333
vt 0.661538 0.223333
vt 1.000000 0.223333
vt 0.569231 0.223333
vt 0.661538 0.383333
vt 0.661538 0.196667
vt 1.000000 0.196667
vt 0.569231 0.196667
vt 0.934615 0.640000
vt 0.871154 0.746667
vt 0.873077 0.640000
vt 0.871154 0.640000
vt 0.934615 0.560000
vt 0.873077 0.560000
vt 0.842308 0.640000
vt 0.840385 0.640000
vt 0.965385 0.640000
vt 0.780769 0.640000
vt 0.840385 0.746667
vt 0.842308 0.560000
vt 0.965385 0.560000
vt 0.780769 0.560000
vt 0.909615 0.810000
vt 0.878846 0.863333
vt 0.878846 0.810000
vt 0.909615 0.770000
vt 0.909615 0.863333
vt 0.878846 0.770000
vt 0.848077 0.810000
vt 0.940385 0.810000
vt 0.817308 0.810000
vt 0.848077 0.863333
vt 0.848077 0.770000
vt 0.940385 0.770000
vt 0.817308 0.770000
vt 0.880769 0.653333
vt 0.753846 0.623333
vt 0.853846 0.653333
vt 0.753846 0.576667
vt 0.880769 0.646667
vt 0.880769 0.700000
vt 0.853846 0.646667
vt 0.826923 0.653333
vt 0.726923 0.576667
vt 0.907692 0.653333
vt 0.800000 0.653333
vt 0.726923 0.623333
vt 0.826923 0.646667
vt 0.907692 0.646667
vt 0.800000 0.646667
vt 0.853846 0.700000
vt 0.705769 0.833333
vt 0.694231 0.853333
vt 0.694231 0.833333
vt 0.705769 0.813333
vt 0.696154 0.853333
vt 0.694231 0.813333
vt 0.696154 0.833333
vt 0.692308 0.833333
vt 0.707692 0.833333
vt 0.680769 0.833333
vt 0.692308 0.853333
vt 0.692308 0.813333
vt 0.707692 0.813333
vt 0.680769 0.813333
vt 0.969231 0.133333
vt 0.938462 0.133333
vt 0.938462 0.186667
vt 1.000000 0.133333
vt 0.969231 0.106667
vt 0.938462 0.106667
vt 0.969231 0.186667
vt 1.000000 0.106667
vt 0.907692 0.133333
vt 0.907692 0.186667
vt 0.907692 0.106667
vt 0.907692 0.160000
vt 0.938462 0.160000
vt 0.876923 0.133333
vt 0.876923 0.106667
vt 0.892308 0.133333
vt 0.892308 0.106667
vt 0.984615 0.450000
vt 0.953846 0.503333
vt 0.953846 0.450000
vt 0.984615 0.396667
vt 0.969231 0.503333
vt 0.953846 0.396667
vt 0.969231 0.450000
vt 0.938462 0.450000
vt 1.000000 0.450000
vt 0.907692 0.450000
vt 0.938462 0.503333
vt 0.938462 0.396667
vt 1.000000 0.396667
vt 0.907692 0.396667
vt 0.751923 0.460000
vt 0.690385 0.566667
vt 0.690385 0.460000
vt 0.751923 0.420000
vt 0.698077 0.566667
vt 0.690385 0.420000
vt 0.698077 0.460000
vt 0.682692 0.460000
vt 0.759615 0.460000
vt 0.621154 0.460000
vt 0.682692 0.566667
vt 0.682692 0.420000
vt 0.759615 0.420000
vt 0.621154 0.420000
vt 0.830769 0.546667
vt 0.892308 0.440000
vt 0.830769 0.440000
vt 0.838462 0.546667
vt 0.892308 0.400000
vt 0.838462 0.440000
vt 0.830769 0.400000
vt 0.823077 0.440000
vt 0.900000 0.440000
vt 0.823077 0.546667
vt 0.761538 0.440000
vt 0.823077 0.400000
vt 0.900000 0.400000
vt 0.761538 0.400000
vt 0.792308 0.440000
vt 0.823077 0.466667
vt 0.807692 0.440000
vt 0.823077 0.520000
vt 0.776923 0.440000
vt 0.861538 0.440000
vt 0.830769 0.520000
vt 0.876923 0.440000
vt 0.830769 0.466667
vt 0.846154 0.440000
vt 0.861538 0.420000
vt 0.792308 0.420000
vt 0.698077 0.700000
vt 0.690385 0.713333
vt 0.690385 0.700000
vt 0.698077 0.660000
vt 0.715385 0.713333
vt 0.690385 0.660000
vt 0.715385 0.700000
vt 0.665385 0.700000
vt 0.723077 0.700000
vt 0.657692 0.700000
vt 0.665385 0.713333
vt 0.665385 0.660000
vt 0.723077 0.660000
vt 0.657692 0.660000
vt 0.726923 0.040000
vt 0.723077 0.046667
vt 0.723077 0.040000
vt 0.726923 0.000000
vt 0.730769 0.046667
vt 0.723077 0.000000
vt 0.730769 0.040000
vt 0.715385 0.040000
vt 0.734615 0.040000
vt 0.711538 0.040000
vt 0.715385 0.046667
vt 0.715385 0.000000
vt 0.734615 0.000000
vt 0.711538 0.000000
vt 0.901923 0.900000
vt 0.873077 0.950000
vt 0.873077 0.900000
vt 0.901923 0.873333
vt 0.900000 0.950000
vt 0.873077 0.873333
vt 0.900000 0.900000
vt 0.846154 0.900000
vt 0.928846 0.900000
vt 0.817308 0.900000
vt 0.846154 0.950000
vt 0.846154 0.873333
vt 0.928846 0.873333
vt 0.817308 0.873333
vt 0.765385 0.900000
vt 0.736538 0.950000
vt 0.736538 0.900000
vt 0.765385 0.873333
vt 0.763462 0.950000
vt 0.736538 0.873333
vt 0.763462 0.900000
vt 0.709615 0.900000
vt 0.792308 0.900000
vt 0.680769 0.900000
vt 0.709615 0.950000
vt 0.709615 0.873333
vt 0.792308 0.873333
vt 0.680769 0.873333
vt 0.698077 0.630000
vt 0.690385 0.630000
vt 0.648077 0.630000
vt 0.694231 0.630000
vt 0.648077 0.583333
vt 0.698077 0.576667
vt 0.690385 0.576667
vt 0.771154 0.523333
vt 0.694231 0.576667
vt 0.771154 0.516667
vt 0.663462 0.630000
vt 0.644231 0.583333
vt 0.644231 0.630000
vt 0.663462 0.576667
vt 0.744231 0.516667
vt 0.744231 0.523333
vt 0.923077 0.160000
vn -0.0000 -0.0000 -1.0000
vn -1.0000 -0.0000 -0.0000
vn -0.0000 -0.0000 1.0000
vn 1.0000 -0.0000 -0.0000
vn -0.0000 1.0000 -0.0000
vn -0.0000 -1.0000 -0.0000
usemtl grist_mill
f 4/6/1 2/3/1 5/8/1 7/12/1
f 3/4/2 1/1/2 2/3/2 4/6/2
f 8/13/3 6/9/3 1/1/3 3/4/3
f 7/12/4 5/8/4 6/10/4 8/14/4
f 6/11/5 5/8/5 2/3/5 1/2/5
f 7/3/6 8/2/6 3/5/6 4/7/6
f 12/20/1 10/17/1 13/21/1 15/26/1
f 11/19/2 9/15/2 10/17/2 12/20/2
f 16/27/3 14/23/3 9/15/3 11/19/3
f 15/26/4 13/21/4 14/24/4 16/28/4
f 14/25/5 13/22/5 10/18/5 9/16/5
f 20/34/1 18/31/1 21/35/1 23/39/1
f 19/32/2 17/29/2 18/31/2 20/34/2
f 24/40/3 22/36/3 17/29/3 19/32/3
f 23/39/4 21/35/4 22/37/4 24/41/4
f 22/38/5 21/35/5 18/31/5 17/30/5
f 23/31/6 24/30/6 19/33/6 20/29/6
f 28/34/3 26/31/3 29/35/3 31/39/3
f 27/32/4 25/29/4 26/31/4 28/34/4
f 32/40/1 30/36/1 25/29/1 27/32/1
f 31/39/2 29/35/2 30/37/2 32/41/2
f 30/38/5 29/35/5 26/31/5 25/30/5
f 31/31/6 32/30/6 27/33/6 28/29/6
f 36/48/1 34/44/1 37/49/1 39/54/1
f 35/46/2 33/42/2 34/44/2 36/48/2
f 40/55/3 38/51/3 33/42/3 35/46/3
f 39/54/4 37/49/4 38/52/4 40/56/4
f 38/53/5 37/50/5 34/45/5 33/43/5
f 39/44/6 40/57/6 35/47/6 36/42/6
f 44/63/1 42/60/1 45/65/1 47/69/1
f 43/61/4 41/58/4 42/60/4 44/63/4
f 48/70/3 46/66/3 41/58/3 43/61/3
f 47/69/2 45/65/2 46/67/2 48/71/2
f 46/68/6 45/65/6 42/60/6 41/59/6
f 47/60/5 48/59/5 43/62/5 44/64/5
f 52/79/1 50/75/1 53/72/1 19/76/1
f 51/76/2 49/72/2 50/73/2 52/77/2
f 55/82/3 54/80/3 49/73/3 51/77/3
f 19/73/6 16/84/6 55/74/6 51/78/6 52/72/6
f 54/85/4 55/86/4 16/88/4 56/87/4
f 60/94/4 58/91/4 13/96/4 61/100/4
f 59/92/1 57/89/1 58/91/1 60/94/1
f 62/101/2 10/97/2 57/89/2 59/92/2
f 61/100/3 13/96/3 10/98/3 62/102/3
f 10/99/5 13/96/5 58/91/5 57/90/5
f 61/91/6 62/90/6 59/93/6 60/95/6
f 66/108/1 64/105/1 67/110/1 12/114/1
f 65/106/2 63/103/2 64/105/2 66/108/2
f 11/115/3 68/111/3 63/103/3 65/106/3
f 12/114/4 67/110/4 68/112/4 11/116/4
f 68/113/5 67/110/5 64/105/5 63/104/5
f 12/105/6 11/104/6 65/107/6 66/109/6
f 72/123/1 70/119/1 73/124/1 75/128/1
f 75/128/4 84/142/4 76/130/4
f 76/129/3 74/125/3 69/118/3 71/121/3
f 78/132/5 73/124/5 70/119/5 82/139/5
f 75/119/6 76/117/6 71/120/6 72/122/6
f 74/126/5 79/134/5 81/137/5 69/117/5
f 71/121/2 83/141/2 72/123/2
f 72/123/2 83/141/2 70/119/2
f 70/119/2 83/141/2 82/140/2
f 82/140/2 83/141/2 80/136/2
f 80/136/2 83/141/2 81/138/2
f 81/138/2 83/141/2 69/118/2
f 69/118/2 83/141/2 71/121/2
f 76/130/4 84/142/4 74/127/4
f 74/127/4 84/142/4 79/135/4
f 79/135/4 84/142/4 77/131/4
f 77/131/4 84/142/4 78/133/4
f 78/133/4 84/142/4 73/124/4
f 73/124/4 84/142/4 75/128/4
f 88/148/1 86/145/1 89/150/1 91/154/1
f 87/146/2 85/143/2 86/145/2 88/148/2
f 92/155/3 90/151/3 85/143/3 87/146/3
f 91/154/4 89/150/4 90/152/4 92/156/4
f 90/153/5 89/150/5 86/145/5 85/144/5
f 91/145/6 92/144/6 87/147/6 88/149/6
f 96/148/1 94/145/1 97/150/1 99/154/1
f 95/146/2 93/143/2 94/145/2 96/148/2
f 100/155/3 98/151/3 93/143/3 95/146/3
f 99/154/4 97/150/4 98/152/4 100/156/4
f 98/153/5 97/150/5 94/145/5 93/144/5
f 99/145/6 100/144/6 95/147/6 96/149/6
f 104/162/4 102/159/4 105/164/4 107/168/4
f 103/160/1 101/157/1 102/159/1 104/162/1
f 108/169/2 106/165/2 101/157/2 103/160/2
f 107/168/3 105/164/3 106/166/3 108/170/3
f 106/167/5 105/164/5 102/159/5 101/158/5
f 107/159/6 108/158/6 103/161/6 104/163/6
f 112/162/4 110/159/4 113/164/4 115/168/4
f 111/160/1 109/157/1 110/159/1 112/162/1
f 116/169/2 114/165/2 109/157/2 111/160/2
f 115/168/3 113/164/3 114/166/3 116/170/3
f 114/167/5 113/164/5 110/159/5 109/158/5
f 115/159/6 116/158/6 111/161/6 112/163/6
f 120/176/1 118/173/1 121/178/1 123/182/1
f 119/174/2 117/171/2 118/173/2 120/176/2
f 124/183/3 122/179/3 117/171/3 119/174/3
f 123/182/4 121/178/4 122/180/4 124/184/4
f 122/181/5 121/178/5 118/173/5 117/172/5
f 123/173/6 124/172/6 119/175/6 120/177/6
f 128/190/3 126/187/3 129/192/3 131/196/3
f 127/188/4 125/185/4 126/187/4 128/190/4
f 132/197/1 130/193/1 125/185/1 127/188/1
f 131/196/2 129/192/2 130/194/2 132/198/2
f 130/195/5 129/192/5 126/187/5 125/186/5
f 131/187/6 132/186/6 127/189/6 128/191/6
f 136/205/1 134/200/1 137/209/1 139/212/1
f 135/204/2 133/199/2 134/202/2 136/207/2
f 140/212/3 138/209/3 133/200/3 135/205/3
f 139/204/4 137/199/4 138/202/4 140/207/4
f 138/211/5 137/210/5 134/203/5 133/201/5
f 139/213/6 140/214/6 135/206/6 136/208/6
f 144/205/2 142/200/2 145/209/2 146/212/2
f 143/207/3 141/202/3 142/199/3 144/204/3
f 136/212/4 134/209/4 141/200/4 143/205/4
f 146/204/1 145/199/1 134/202/1 136/207/1
f 134/211/5 145/210/5 142/203/5 141/201/5
f 146/213/6 136/214/6 143/206/6 144/208/6
f 144/212/1 142/209/1 149/200/1 151/205/1
f 148/204/2 147/199/2 142/202/2 144/207/2
f 152/205/3 150/200/3 147/209/3 148/212/3
f 151/204/4 149/199/4 150/202/4 152/207/4
f 150/211/5 149/210/5 142/203/5 147/201/5
f 151/213/6 152/214/6 148/206/6 144/208/6
f 140/205/4 138/200/4 155/209/4 156/212/4
f 154/204/1 153/199/1 138/202/1 140/207/1
f 152/212/2 150/209/2 153/200/2 154/205/2
f 156/204/3 155/199/3 150/202/3 152/207/3
f 150/211/5 155/210/5 138/203/5 153/201/5
f 156/213/6 152/214/6 154/206/6 140/208/6
f 54/81/5 56/83/5 157/215/5
f 53/80/5 50/73/5 157/215/5
f 50/73/5 49/74/5 157/215/5
f 49/74/5 54/81/5 157/215/5
