# Blender 3.5.1
# www.blender.org
mtllib thresher.mtl

o base
v 2.000000 0.500000 2.000000
v 2.000000 0.500000 -1.000000
v 2.000000 0.000000 2.000000
v 2.000000 -0.000000 -1.000000
v -1.000000 0.500000 -1.000000
v -1.000000 0.500000 2.000000
v -1.000000 -0.000000 -1.000000
v -1.000000 0.000000 2.000000
v 0.937563 2.500062 0.937562
v 0.937563 2.500062 0.062437
v 0.937563 2.374938 0.937562
v 0.937563 2.374938 0.062437
v 0.062438 2.500062 0.062437
v 0.062438 2.500062 0.937562
v 0.062438 2.374938 0.062437
v 0.062438 2.374938 0.937562
v 1.000000 1.000000 -0.000000
v 1.000000 1.000000 -1.000000
v 1.000000 0.500000 -0.000000
v 1.000000 0.500000 -1.000000
v 0.000000 1.000000 -1.000000
v 0.000000 1.000000 -0.000000
v 0.000000 0.500000 -1.000000
v 0.000000 0.500000 -0.000000
v 1.499938 1.111737 1.437437
v 1.499938 2.437562 0.111612
v 1.499938 0.562563 0.888263
v 1.499938 1.888388 -0.437563
v -0.500062 2.437562 0.111612
v -0.500062 1.111737 1.437437
v -0.500062 1.888388 -0.437563
v -0.500062 0.562563 0.888263
v 1.500000 1.888325 1.437500
v 1.500000 1.888325 -0.437500
v 1.500000 1.111675 1.437500
v 1.500000 1.111675 -0.437500
v -0.500000 1.888325 -0.437500
v -0.500000 1.888325 1.437500
v -0.500000 1.111675 -0.437500
v -0.500000 1.111675 1.437500
v 1.500000 2.437500 0.888325
v 1.500000 0.562500 0.111675
v -0.500000 2.437500 0.888325
v -0.500000 0.562500 0.111675
v 1.500000 2.437500 0.111675
v 1.500000 0.562500 0.888325
v -0.500000 2.437500 0.111675
v -0.500000 0.562500 0.888325
v -0.062500 1.824414 -0.375000
v -0.062500 1.824414 -0.562500
v -0.062500 0.449414 -0.375000
v -0.062500 0.449414 -0.562500
v -0.437500 1.824414 -0.562500
v -0.437500 1.824414 -0.375000
v -0.437500 0.449414 -0.562500
v -0.437500 0.449414 -0.375000
v 1.437500 1.824414 -0.375000
v 1.437500 1.824414 -0.562500
v 1.437500 0.449414 -0.375000
v 1.437500 0.449414 -0.562500
v 1.062500 1.824414 -0.562500
v 1.062500 1.824414 -0.375000
v 1.062500 0.449414 -0.562500
v 1.062500 0.449414 -0.375000
v -0.062500 1.824414 1.562500
v -0.062500 1.824414 1.375000
v -0.062500 0.449415 1.562500
v -0.062500 0.449414 1.375000
v -0.437500 1.824414 1.375000
v -0.437500 1.824414 1.562500
v -0.437500 0.449414 1.375000
v -0.437500 0.449415 1.562500
v 1.437500 1.824414 1.562500
v 1.437500 1.824414 1.375000
v 1.437500 0.449415 1.562500
v 1.437500 0.449414 1.375000
v 1.062500 1.824414 1.375000
v 1.062500 1.824414 1.562500
v 1.062500 0.449414 1.375000
v 1.062500 0.449415 1.562500
v -0.500000 2.000000 1.000000
v -0.500000 2.000000 -0.000000
v -0.500000 1.000000 1.000000
v -0.500000 1.000000 -0.000000
v -1.000000 2.000000 -0.000000
v -1.000000 2.000000 1.000000
v -1.000000 1.000000 -0.000000
v -1.000000 1.000000 1.000000
v 0.875000 1.875000 2.000000
v 0.875000 1.875000 1.000000
v 0.875000 1.125000 2.000000
v 0.875000 1.125000 1.000000
v 0.125000 1.875000 1.000000
v 0.125000 1.875000 2.000000
v 0.125000 1.125000 1.000000
v 0.125000 1.125000 2.000000
v -0.625000 1.250000 0.250000
v -0.625000 1.250000 0.125000
v -0.625000 0.500000 0.250000
v -0.625000 0.500000 0.125000
v -0.875000 1.250000 0.125000
v -0.875000 1.250000 0.250000
v -0.875000 0.500000 0.125000
v -0.875000 0.500000 0.250000
v -0.625000 1.250000 0.875000
v -0.625000 1.250000 0.750000
v -0.625000 0.500000 0.875000
v -0.625000 0.500000 0.750000
v -0.875000 1.250000 0.750000
v -0.875000 1.250000 0.875000
v -0.875000 0.500000 0.750000
v -0.875000 0.500000 0.875000
v 1.000000 3.000000 0.125000
v 1.000000 3.000000 -0.000000
v 1.000000 2.000000 0.125000
v 1.000000 2.000000 -0.000000
v 0.125000 3.000000 -0.000000
v 0.125000 3.000000 0.125000
v 0.125000 2.000000 -0.000000
v 0.125000 2.000000 0.125000
v 0.000000 3.000000 -0.000000
v 0.000000 2.000000 -0.000000
v 0.000000 3.000000 0.875000
v 0.125000 3.000000 0.875000
v 0.000000 2.000000 0.875000
v 0.125000 2.000000 0.875000
v 0.875000 3.000000 0.875000
v 0.875000 2.000000 0.875000
v 0.000000 3.000000 1.000000
v 0.875000 3.000000 1.000000
v 0.000000 2.000000 1.000000
v 0.875000 2.000000 1.000000
v 1.000000 3.000000 1.000000
v 1.000000 2.000000 1.000000
v 0.875000 3.000000 0.125000
v 0.875000 2.000000 0.125000
v 2.000000 2.000000 1.000000
v 2.000000 2.000000 -0.000000
v 2.000000 1.000000 1.000000
v 2.000000 1.000000 -0.000000
v 1.000000 1.000000 1.000000
v -0.500025 2.091221 0.499964
v -0.500031 0.908844 0.499968
v 1.495230 2.438415 0.111612
v 1.495230 1.112590 1.437437
v 1.495230 1.889241 -0.437563
v 1.495230 0.563416 0.888263
v 1.495292 1.889178 -0.437500
v 1.495292 1.889178 1.437500
v 1.495292 2.438353 0.888325
v 1.495292 1.112528 -0.437500
v 1.495292 0.563353 0.111675
v 1.495292 2.438353 0.111675
v 1.495267 2.092074 0.499964
v 1.495261 0.909697 0.499968
v 1.495266 1.500897 0.499943
vt 0.630769 0.223333
vt 1.000000 0.223333
vt 0.723077 0.383333
vt 0.723077 0.223333
vt 0.630769 0.196667
vt 1.000000 0.196667
vt 0.815385 0.383333
vt 0.723077 0.196667
vt 0.815385 0.223333
vt 0.907692 0.223333
vt 0.815385 0.196667
vt 0.907692 0.196667
vt 0.907692 0.383333
vt 0.800000 0.653333
vt 0.907692 0.653333
vt 0.726923 0.623333
vt 0.826923 0.653333
vt 0.726923 0.576667
vt 0.800000 0.646667
vt 0.907692 0.646667
vt 0.853846 0.700000
vt 0.826923 0.646667
vt 0.853846 0.653333
vt 0.753846 0.576667
vt 0.880769 0.653333
vt 0.753846 0.623333
vt 0.853846 0.646667
vt 0.880769 0.646667
vt 0.880769 0.700000
vt 0.876923 0.133333
vt 1.000000 0.133333
vt 0.907692 0.186667
vt 0.907692 0.133333
vt 0.876923 0.106667
vt 1.000000 0.106667
vt 0.938462 0.186667
vt 0.907692 0.106667
vt 0.938462 0.133333
vt 0.969231 0.133333
vt 0.938462 0.106667
vt 0.969231 0.106667
vt 0.969231 0.186667
vt 0.636538 0.510000
vt 0.698077 0.510000
vt 0.698077 0.430000
vt 0.636538 0.430000
vt 0.734615 0.073333
vt 0.769231 0.073333
vt 0.740385 0.083333
vt 0.740385 0.073333
vt 0.734615 0.000000
vt 0.769231 0.000000
vt 0.751923 0.083333
vt 0.740385 0.000000
vt 0.751923 0.073333
vt 0.757692 0.073333
vt 0.751923 0.000000
vt 0.763462 0.073333
vt 0.757692 0.000000
vt 0.763462 0.083333
vt 0.907692 0.450000
vt 1.000000 0.450000
vt 0.938462 0.503333
vt 0.938462 0.450000
vt 0.907692 0.396667
vt 1.000000 0.396667
vt 0.953846 0.503333
vt 0.938462 0.396667
vt 0.953846 0.450000
vt 0.984615 0.450000
vt 0.953846 0.396667
vt 0.969231 0.450000
vt 0.984615 0.396667
vt 0.969231 0.503333
vt 0.892308 0.040000
vt 1.000000 0.040000
vt 0.923077 0.093333
vt 0.923077 0.040000
vt 0.892308 0.000000
vt 1.000000 0.000000
vt 0.923141 0.093265
vt 0.923077 0.000000
vt 0.923141 0.039932
vt 0.974954 0.040000
vt 0.946154 0.040000
vt 0.976923 0.040000
vt 0.944185 0.040000
vt 0.946154 0.093333
vt 0.946154 0.000000
vt 0.974954 0.000000
vt 0.946218 0.039932
vt 0.976923 0.000000
vt 0.944185 0.000000
vt 0.946218 0.093265
vt 0.711538 0.040000
vt 0.734615 0.040000
vt 0.715385 0.046667
vt 0.715385 0.040000
vt 0.711538 0.000000
vt 0.723077 0.046667
vt 0.715385 0.000000
vt 0.723077 0.040000
vt 0.726923 0.040000
vt 0.723077 0.000000
vt 0.730769 0.040000
vt 0.726923 0.000000
vt 0.730769 0.046667
vt 0.694231 0.630000
vt 0.663462 0.630000
vt 0.644231 0.630000
vt 0.698077 0.630000
vt 0.644231 0.583333
vt 0.694231 0.576667
vt 0.663462 0.576667
vt 0.744231 0.523333
vt 0.698077 0.576667
vt 0.744231 0.516667
vt 0.690385 0.630000
vt 0.648077 0.583333
vt 0.648077 0.630000
vt 0.690385 0.576667
vt 0.771154 0.516667
vt 0.771154 0.523333
vt 0.769231 0.053333
vt 0.892308 0.053333
vt 0.800000 0.106667
vt 0.800000 0.053333
vt 0.830769 0.106667
vt 0.800000 0.000000
vt 0.830769 0.053333
vt 0.861538 0.053333
vt 0.830769 0.000000
vt 0.861538 0.000000
vt 0.861538 0.106667
vt 0.653470 0.111310
vt 0.694907 0.039376
vt 0.636302 0.081561
vt 0.677740 0.009625
vt 0.636303 0.081459
vt 0.694935 0.081451
vt 0.677763 0.111236
vt 0.694911 0.081451
vt 0.636302 0.039381
vt 0.653452 0.009582
vt 0.653487 0.111280
vt 0.677777 0.111278
vt 0.653466 0.009625
vt 0.665614 0.092504
vt 0.665602 0.028382
vt 0.665605 0.060439
vn -0.0000 -0.0000 -1.0000
vn 1.0000 -0.0000 -0.0000
vn -0.0000 -0.0000 1.0000
vn -1.0000 -0.0000 -0.0000
vn -0.0000 1.0000 -0.0000
vn -0.0000 -1.0000 -0.0000
vn -0.0000 0.7071 -0.7071
vn -0.0000 -0.7071 0.7071
vn -0.0000 0.7071 0.7071
vn -0.0000 -0.7071 -0.7071
vn 0.0696 0.7446 0.6638
vn -1.0000 -0.0001 -0.0000
vn -1.0000 0.0001 -0.0000
vn -1.0000 -0.0000 -0.0001
vn 1.0000 -0.0001 -0.0000
vn -0.0698 -0.7430 -0.6657
vn 1.0000 -0.0000 0.0001
vn 0.4822 0.8095 0.3349
usemtl thresher
f 4/8/1 7/11/1 5/9/1 2/4/1
f 3/5/2 4/8/2 2/4/2 1/1/2
f 8/12/3 3/6/3 1/2/3 6/10/3
f 7/11/4 8/12/4 6/10/4 5/9/4
f 6/7/5 1/3/5 2/4/5 5/9/5
f 7/10/6 4/9/6 3/7/6 8/13/6
f 12/22/1 15/27/1 13/23/1 10/17/1
f 11/19/2 12/22/2 10/17/2 9/14/2
f 16/28/3 11/20/3 9/15/3 14/25/3
f 15/27/4 16/28/4 14/25/4 13/23/4
f 14/26/5 9/16/5 10/18/5 13/24/5
f 15/25/6 12/23/6 11/21/6 16/29/6
f 20/37/1 23/40/1 21/38/1 18/33/1
f 19/34/2 20/37/2 18/33/2 17/30/2
f 24/41/3 19/35/3 17/31/3 22/39/3
f 23/40/4 24/41/4 22/39/4 21/38/4
f 22/36/5 17/32/5 18/33/5 21/38/5
f 23/39/6 20/38/6 19/36/6 24/42/6
f 28/43/7 31/46/7 29/45/7 26/44/7
f 32/45/8 27/44/8 25/43/8 30/46/8
f 36/43/1 39/46/1 37/45/1 34/44/1
f 40/45/3 35/44/3 33/43/3 38/46/3
f 38/45/9 33/44/9 41/43/9 43/46/9
f 39/46/10 36/43/10 42/44/10 44/45/10
f 43/45/5 41/44/5 45/43/5 47/46/5
f 44/46/6 42/43/6 46/44/6 48/45/6
f 52/54/1 55/57/1 53/55/1 50/50/1
f 51/51/2 52/54/2 50/50/2 49/47/2
f 56/59/3 51/52/3 49/48/3 54/56/3
f 55/57/4 56/59/4 54/56/4 53/55/4
f 54/53/5 49/49/5 50/50/5 53/55/5
f 55/58/6 52/55/6 51/53/6 56/60/6
f 60/54/1 63/57/1 61/55/1 58/50/1
f 59/51/2 60/54/2 58/50/2 57/47/2
f 64/59/3 59/52/3 57/48/3 62/56/3
f 63/57/4 64/59/4 62/56/4 61/55/4
f 62/53/5 57/49/5 58/50/5 61/55/5
f 63/58/6 60/55/6 59/53/6 64/60/6
f 68/54/1 71/57/1 69/55/1 66/50/1
f 67/51/2 68/54/2 66/50/2 65/47/2
f 72/59/3 67/52/3 65/48/3 70/56/3
f 71/57/4 72/59/4 70/56/4 69/55/4
f 70/53/5 65/49/5 66/50/5 69/55/5
f 71/58/6 68/55/6 67/53/6 72/60/6
f 76/54/1 79/57/1 77/55/1 74/50/1
f 75/51/2 76/54/2 74/50/2 73/47/2
f 80/59/3 75/52/3 73/48/3 78/56/3
f 79/57/4 80/59/4 78/56/4 77/55/4
f 78/53/5 73/49/5 74/50/5 77/55/5
f 79/58/6 76/55/6 75/53/6 80/60/6
f 84/68/1 87/71/1 85/69/1 82/64/1
f 83/65/2 84/68/2 82/64/2 81/61/2
f 88/73/3 83/66/3 81/62/3 86/70/3
f 87/71/4 88/73/4 86/70/4 85/69/4
f 86/67/5 81/63/5 82/64/5 85/69/5
f 87/72/6 84/69/6 83/67/6 88/74/6
f 92/82/1 95/89/1 93/85/1 90/78/1
f 91/79/2 92/82/2 90/78/2 89/75/2
f 96/92/3 91/80/3 89/76/3 94/86/3
f 95/90/4 96/93/4 94/87/4 93/84/4
f 94/88/5 89/77/5 90/78/5 93/85/5
f 95/91/6 92/83/6 91/81/6 96/94/6
f 100/101/1 103/104/1 101/102/1 98/98/1
f 99/99/2 100/101/2 98/98/2 97/95/2
f 104/106/3 99/51/3 97/96/3 102/103/3
f 103/104/4 104/106/4 102/103/4 101/102/4
f 102/100/5 97/97/5 98/98/5 101/102/5
f 103/105/6 100/102/6 99/100/6 104/107/6
f 108/101/1 111/104/1 109/102/1 106/98/1
f 107/99/2 108/101/2 106/98/2 105/95/2
f 112/106/3 107/51/3 105/96/3 110/103/3
f 111/104/4 112/106/4 110/103/4 109/102/4
f 110/100/5 105/97/5 106/98/5 109/102/5
f 111/105/6 108/102/6 107/100/6 112/107/6
f 116/114/1 119/121/1 117/118/1 114/109/1
f 115/113/2 116/116/2 114/111/2 113/108/2
f 120/121/3 115/114/3 113/109/3 118/118/3
f 119/113/4 120/116/4 118/111/4 117/108/4
f 118/120/5 113/110/5 114/112/5 117/119/5
f 119/122/6 116/117/6 115/115/6 120/123/6
f 122/114/4 125/121/4 123/118/4 121/109/4
f 119/113/1 122/116/1 121/111/1 117/108/1
f 126/121/2 119/114/2 117/109/2 124/118/2
f 125/116/3 126/113/3 124/108/3 123/111/3
f 124/120/5 117/110/5 121/112/5 123/119/5
f 125/122/6 122/117/6 119/115/6 126/123/6
f 125/113/4 131/116/4 129/111/4 123/108/4
f 128/121/1 125/114/1 123/109/1 127/118/1
f 132/116/2 128/113/2 127/108/2 130/111/2
f 131/114/3 132/121/3 130/118/3 129/109/3
f 130/119/5 127/120/5 123/110/5 129/112/5
f 131/117/6 125/115/6 128/123/6 132/122/6
f 134/114/2 115/121/2 113/118/2 133/109/2
f 132/113/3 134/116/3 133/111/3 130/108/3
f 136/121/4 132/114/4 130/109/4 135/118/4
f 115/113/1 136/116/1 135/111/1 113/108/1
f 135/120/5 130/110/5 133/112/5 113/119/5
f 115/122/6 134/117/6 132/115/6 136/123/6
f 140/129/1 17/132/1 116/130/1 138/127/1
f 139/52/2 140/129/2 138/127/2 137/124/2
f 141/133/3 139/79/3 137/125/3 134/131/3
f 17/132/4 141/133/4 134/131/4 116/130/4
f 134/128/5 137/126/5 138/127/5 116/130/5
f 17/131/6 140/130/6 139/128/6 141/134/6
f 30/136/4 39/143/4 143/149/4
f 37/139/4 39/143/4 30/136/4 38/140/4 38/142/4 31/137/4
f 47/145/11 29/135/11 142/148/11
f 29/135/12 31/137/12 142/148/12
f 31/137/4 38/142/4 142/148/4
f 38/142/4 43/141/4 142/148/4
f 43/141/3 43/146/3 142/148/3
f 43/146/13 47/145/13 142/148/13
f 39/143/4 44/147/4 143/149/4
f 44/147/3 44/144/3 143/149/3
f 44/144/14 32/138/14 143/149/14
f 32/138/4 30/136/4 143/149/4
f 145/136/2 147/138/2 155/149/2
f 153/145/15 150/146/15 154/148/15
f 150/146/3 150/141/3 154/148/3
f 150/141/2 149/142/2 154/148/2
f 149/142/2 146/137/2 154/148/2
f 146/137/2 144/135/2 154/148/2
f 144/135/16 153/145/16 154/148/16
f 147/138/17 152/144/17 155/149/17
f 152/144/3 152/147/3 155/149/3
f 152/147/2 151/143/2 155/149/2
f 151/143/2 145/136/2 155/149/2
f 148/139/18 146/137/18 156/150/18
f 146/137/2 149/142/2 156/150/2
f 149/142/3 149/140/3 156/150/3
f 149/140/15 145/136/15 156/150/15
f 145/136/2 151/143/2 156/150/2
f 151/143/2 148/139/2 156/150/2
