# Blender 4.5.3 LTS
# www.blender.org
mtllib beamhouse.mtl

o base
v 2.000000 -0.500000 3.000000
v 2.000000 -0.500000 -1.000000
v 2.000000 -1.000000 3.000000
v 2.000000 -1.000000 -1.000000
v -2.000000 -0.500000 -1.000000
v -2.000000 -0.500000 3.000000
v -2.000000 -1.000000 -1.000000
v -2.000000 -1.000000 3.000000
v -0.437500 -0.312500 1.500000
v -0.437500 -0.312500 -0.500000
v -0.437500 -0.437500 1.500000
v -0.437500 -0.437500 -0.500000
v -0.562500 -0.312500 -0.500000
v -0.562500 -0.312500 1.500000
v -0.562500 -0.437500 -0.500000
v -0.562500 -0.437500 1.500000
v -0.468750 0.204505 -0.514087
v -0.468750 0.116117 -0.602476
v -0.468750 -0.325825 0.016243
v -0.468750 -0.414214 -0.072146
v -0.531250 0.116117 -0.602476
v -0.531250 0.204505 -0.514087
v -0.531250 -0.414214 -0.072146
v -0.531250 -0.325825 0.016243
v -0.468750 0.116117 1.607233
v -0.468750 0.204505 1.518845
v -0.468750 -0.414213 1.076903
v -0.468750 -0.325825 0.988515
v -0.531250 0.204505 1.518845
v -0.531250 0.116117 1.607233
v -0.531250 -0.325825 0.988515
v -0.531250 -0.414213 1.076903
v -0.750000 0.750000 1.937500
v -0.750000 0.750000 1.687500
v -0.750000 0.500000 1.937500
v -0.750000 0.500000 1.687500
v -1.375000 0.750000 1.687500
v -1.375000 0.750000 1.937500
v -1.375000 0.500000 1.687500
v -1.375000 0.500000 1.937500
v -1.375000 0.750000 2.000000
v -1.375000 0.500000 2.000000
v -1.625000 0.750000 1.937500
v -1.625000 0.750000 2.000000
v -1.625000 0.500000 1.937500
v -1.625000 0.500000 2.000000
v -1.625000 0.750000 1.687500
v -1.625000 0.500000 1.687500
v -0.468750 0.781250 1.500000
v -0.468750 0.781250 1.437500
v -0.468750 0.718750 1.500000
v -0.468750 0.718750 1.437500
v -0.531250 0.781250 1.437500
v -0.531250 0.781250 1.500000
v -0.531250 0.718750 1.437500
v -0.531250 0.718750 1.500000
v -0.468750 0.781250 -0.437500
v -0.468750 0.781250 -0.500000
v -0.468750 0.718750 -0.437500
v -0.468750 0.718750 -0.500000
v -0.531250 0.781250 -0.500000
v -0.531250 0.781250 -0.437500
v -0.531250 0.718750 -0.500000
v -0.531250 0.718750 -0.437500
v -1.000000 1.000000 3.000000
v -1.000000 1.000000 2.000000
v -1.000000 -0.500000 3.000000
v -1.000000 -0.500000 2.000000
v -2.000000 1.000000 2.000000
v -2.000000 1.000000 3.000000
v -2.000000 -0.500000 2.000000
v 1.500000 0.500000 3.000000
v 1.500000 0.500000 2.000000
v 1.500000 -0.500000 3.000000
v 1.500000 -0.500000 2.000000
v -0.500000 0.500000 2.000000
v -0.500000 0.500000 3.000000
v -0.500000 -0.500000 2.000000
v -0.500000 -0.500000 3.000000
v 2.000000 1.000000 1.000000
v 2.000000 1.000000 -1.000000
v 2.000000 -0.500000 1.000000
v 1.000000 1.000000 -1.000000
v 1.000000 1.000000 1.000000
v 1.000000 -0.500000 -1.000000
v 1.000000 -0.500000 1.000000
v -0.250000 1.000000 2.000000
v -0.250000 1.000000 1.625000
v -0.250000 0.250000 2.000000
v -0.250000 0.250000 1.625000
v -0.750000 1.000000 1.625000
v -0.750000 1.000000 2.000000
v -0.750000 0.250000 1.625000
v -0.750000 0.250000 2.000000
v -0.437500 0.812500 1.625000
v -0.437500 0.812500 1.500000
v -0.437500 -0.500000 1.625000
v -0.437500 -0.500000 1.500000
v -0.562500 0.812500 1.500000
v -0.562500 0.812500 1.625000
v -0.562500 -0.500000 1.500000
v -0.562500 -0.500000 1.625000
v -0.437500 0.812500 -0.500000
v -0.437500 0.812500 -0.625000
v -0.437500 -0.500000 -0.500000
v -0.437500 -0.500000 -0.625000
v -0.562500 0.812500 -0.625000
v -0.562500 0.812500 -0.500000
v -0.562500 -0.500000 -0.625000
v -0.562500 -0.500000 -0.500000
v 1.000000 -0.250000 0.625000
v 1.000000 -0.250000 0.375000
v 1.000000 -0.500000 0.625000
v 1.000000 -0.500000 0.375000
v 0.625000 -0.250000 0.375000
v 0.625000 -0.250000 0.625000
v 0.625000 -0.500000 0.375000
v 0.625000 -0.500000 0.625000
v 0.625000 -0.250000 2.000000
v 0.625000 -0.500000 2.000000
v 0.375000 -0.250000 0.375000
v 0.375000 -0.250000 2.000000
v 0.375000 -0.500000 0.375000
v 0.375000 -0.500000 2.000000
v 2.000000 1.000000 2.000000
v 2.000000 0.000000 2.000000
v 2.000000 0.000000 1.000000
v 1.500000 1.000000 1.000000
v 1.500000 1.000000 2.000000
v 1.500000 0.000000 1.000000
v 1.500000 0.000000 2.000000
v 1.875000 0.000000 1.875000
v 1.875000 0.000000 1.750000
v 1.875000 -0.500000 1.875000
v 1.875000 -0.500000 1.750000
v 1.625000 0.000000 1.750000
v 1.625000 0.000000 1.875000
v 1.625000 -0.500000 1.750000
v 1.625000 -0.500000 1.875000
v 1.875000 0.000000 1.250000
v 1.875000 0.000000 1.125000
v 1.875000 -0.500000 1.250000
v 1.875000 -0.500000 1.125000
v 1.625000 0.000000 1.125000
v 1.625000 0.000000 1.250000
v 1.625000 -0.500000 1.125000
v 1.625000 -0.500000 1.250000
vt -0.000000 0.437500
vt 0.333333 0.437500
vt 0.333333 0.500000
vt 0.000000 0.500000
vt 0.666667 0.437500
vt 0.666667 0.500000
vt 1.000000 0.437500
vt 1.000000 0.500000
vt 1.000000 0.562500
vt 0.666667 0.562500
vt 0.000000 1.000000
vt 0.333333 1.000000
vt 0.666667 1.000000
vt 0.854167 -0.000000
vt 0.875000 -0.000000
vt 0.875000 0.031250
vt 0.854167 0.031250
vt 0.854167 0.281250
vt 0.875000 0.281250
vt 0.895833 0.062500
vt 0.901042 0.062500
vt 0.901042 0.156250
vt 0.895833 0.156250
vt 0.906250 0.062500
vt 0.906250 0.156250
vt 0.833333 0.015625
vt 0.833333 0.125000
vt 0.812500 0.125000
vt 0.812500 0.015625
vt 0.833333 0.101562
vt 0.833333 0.109375
vt 0.812500 0.109375
vt 0.812500 0.101562
vt 0.833333 0.093750
vt 0.812500 0.093750
vt 0.854167 0.125000
vt 0.854167 0.093750
vt 0.859375 0.007812
vt 0.869792 0.007812
vt 0.869792 0.023438
vt 0.859375 0.023438
vt 0.562500 -0.000000
vt 0.645833 -0.000000
vt 0.645833 0.187500
vt 0.562500 0.187500
vt 0.479167 -0.000000
vt 0.479167 0.187500
vt 0.395833 -0.000000
vt 0.395833 0.187500
vt 0.645833 0.312500
vt 0.562500 0.312500
vt 0.645833 0.125000
vt 0.812500 0.250000
vt 0.645833 0.250000
vt 0.729167 0.250000
vt 0.812500 0.375000
vt 0.729167 0.375000
vt 0.812500 -0.000000
vt 0.916667 -0.000000
vt 1.000000 -0.000000
vt 1.000000 0.125000
vt 0.916667 0.125000
vt 0.312500 -0.000000
vt 0.312500 0.187500
vt 0.229167 0.187500
vt 0.395833 0.375000
vt 0.229167 0.375000
vt 0.229167 -0.000000
vt 0.562500 0.375000
vt 0.187500 -0.000000
vt 0.229167 0.093750
vt 0.187500 0.093750
vt 0.197917 0.093750
vt 0.197917 0.187500
vt 0.229167 0.250000
vt 0.197917 0.250000
vt 0.895833 0.031250
vt 0.895833 0.281250
vt 0.895833 -0.000000
vt 0.854167 0.171875
vt 0.854167 0.218750
vt 0.833333 0.218750
vt 0.833333 0.171875
vt 0.854167 0.437500
vt 0.833333 0.437500
vt 0.833333 0.406250
vt 0.854167 0.406250
vt 0.854167 0.375000
vt 0.833333 0.375000
vt 0.833333 0.203125
vt 0.854167 0.203125
vt 1.000000 0.062500
vt 0.916667 0.062500
vt 1.000000 0.250000
vt 0.916667 0.250000
vt 0.901042 -0.000000
vt 0.911458 -0.000000
vt 0.911458 0.062500
vn -0.0000 -0.0000 -1.0000
vn 1.0000 -0.0000 -0.0000
vn -0.0000 -0.0000 1.0000
vn -1.0000 -0.0000 -0.0000
vn -0.0000 1.0000 -0.0000
vn -0.0000 -1.0000 -0.0000
vn -0.0000 -0.7071 -0.7071
vn -0.0000 0.7071 0.7071
vn -0.0000 0.7071 -0.7071
vn -0.0000 -0.7071 0.7071
usemtl beamhouse
f 4/1/1 7/2/1 5/3/1 2/4/1
f 3/2/2 4/5/2 2/6/2 1/3/2
f 8/5/3 3/7/3 1/8/3 6/6/3
f 7/6/4 8/8/4 6/9/4 5/10/4
f 6/11/5 1/12/5 2/3/5 5/4/5
f 7/3/6 4/6/6 3/13/6 8/12/6
f 12/14/1 15/15/1 13/16/1 10/17/1
f 11/18/2 12/17/2 10/16/2 9/19/2
f 16/14/3 11/15/3 9/16/3 14/17/3
f 15/16/4 16/19/4 14/18/4 13/17/4
f 14/19/5 9/18/5 10/17/5 13/16/5
f 15/16/6 12/17/6 11/18/6 16/19/6
f 20/20/7 23/21/7 21/22/7 18/23/7
f 19/20/2 20/24/2 18/25/2 17/23/2
f 24/21/8 19/24/8 17/25/8 22/22/8
f 23/20/4 24/24/4 22/25/4 21/23/4
f 28/20/9 31/21/9 29/22/9 26/23/9
f 27/20/2 28/24/2 26/25/2 25/23/2
f 32/21/10 27/24/10 25/25/10 30/22/10
f 31/20/4 32/24/4 30/25/4 29/23/4
f 36/26/1 39/27/1 37/28/1 34/29/1
f 40/28/3 35/29/3 33/26/3 38/27/3
f 38/28/5 33/29/5 34/26/5 37/27/5
f 39/27/6 36/26/6 35/29/6 40/28/6
f 42/30/2 40/31/2 38/32/2 41/33/2
f 45/30/4 46/31/4 44/32/4 43/33/4
f 44/31/5 41/32/5 38/33/5 43/30/5
f 45/31/6 40/32/6 42/33/6 46/30/6
f 39/27/1 48/34/1 47/35/1 37/28/1
f 48/35/4 45/28/4 43/27/4 47/34/4
f 43/34/5 38/27/5 37/36/5 47/37/5
f 48/37/6 39/36/6 40/27/6 45/34/6
f 51/38/2 52/39/2 50/40/2 49/41/2
f 55/38/4 56/39/4 54/40/4 53/41/4
f 54/40/5 49/41/5 50/38/5 53/39/5
f 55/39/6 52/38/6 51/41/6 56/40/6
f 59/38/2 60/39/2 58/40/2 57/41/2
f 63/38/4 64/39/4 62/40/4 61/41/4
f 62/40/5 57/41/5 58/38/5 61/39/5
f 63/39/6 60/38/6 59/41/6 64/40/6
f 68/42/1 71/43/1 69/44/1 66/45/1
f 67/42/2 68/43/2 66/44/2 65/45/2
f 6/46/3 67/42/3 65/45/3 70/47/3
f 71/48/4 6/46/4 70/47/4 69/49/4
f 70/44/5 65/50/5 66/51/5 69/45/5
f 75/52/1 78/28/1 76/53/1 73/54/1
f 74/55/2 75/53/2 73/56/2 72/57/2
f 79/43/3 74/58/3 72/28/3 77/52/3
f 78/59/4 79/60/4 77/61/4 76/62/4
f 77/53/5 72/54/5 73/52/5 76/28/5
f 2/63/1 85/48/1 83/49/1 81/64/1
f 82/65/2 2/49/2 81/66/2 80/67/2
f 86/68/3 82/63/3 80/64/3 84/65/3
f 85/49/4 86/45/4 84/69/4 83/66/4
f 84/28/5 80/53/5 81/54/5 83/52/5
f 90/70/1 93/68/1 91/71/1 88/72/1
f 89/73/2 90/71/2 88/65/2 87/74/2
f 94/70/3 89/68/3 87/71/3 92/72/3
f 93/73/4 94/71/4 92/65/4 91/74/4
f 92/65/5 87/75/5 88/76/5 91/74/5
f 93/74/6 90/76/6 89/75/6 94/65/6
f 98/16/1 101/17/1 99/18/1 96/19/1
f 97/16/2 98/17/2 96/18/2 95/19/2
f 102/77/3 97/16/3 95/19/3 100/78/3
f 101/16/4 102/17/4 100/18/4 99/19/4
f 100/79/5 95/15/5 96/16/5 99/77/5
f 106/16/1 109/77/1 107/78/1 104/19/1
f 105/17/2 106/16/2 104/19/2 103/18/2
f 110/17/3 105/16/3 103/19/3 108/18/3
f 109/17/4 110/16/4 108/19/4 107/18/4
f 108/77/5 103/16/5 104/15/5 107/79/5
f 114/80/1 117/81/1 115/82/1 112/83/1
f 118/80/3 113/81/3 111/82/3 116/83/3
f 116/80/5 111/81/5 112/82/5 115/83/5
f 117/84/1 123/85/1 121/86/1 115/87/1
f 120/80/2 117/88/2 115/89/2 119/83/2
f 123/80/4 124/88/4 122/89/4 121/83/4
f 122/90/5 119/91/5 115/87/5 121/86/5
f 127/92/1 130/61/1 128/62/1 80/93/1
f 126/62/2 127/61/2 80/94/2 125/95/2
f 131/62/3 126/93/3 125/92/3 129/61/3
f 130/59/4 131/60/4 129/61/4 128/62/4
f 129/62/5 125/93/5 80/92/5 128/61/5
f 130/61/6 127/92/6 126/93/6 131/62/6
f 135/79/1 138/59/1 136/93/1 133/20/1
f 134/96/2 135/97/2 133/98/2 132/21/2
f 139/79/3 134/59/3 132/93/3 137/20/3
f 138/96/4 139/97/4 137/98/4 136/21/4
f 143/79/1 146/59/1 144/93/1 141/20/1
f 142/96/2 143/97/2 141/98/2 140/21/2
f 147/79/3 142/59/3 140/93/3 145/20/3
f 146/96/4 147/97/4 145/98/4 144/21/4
