# Blender 3.6.0
# www.blender.org
mtllib grist_mill.mtl



o base
v 2.000000 0.500000 2.000000
v 2.000000 0.500000 -1.000000
v 2.000000 0.000000 2.000000
v 2.000000 -0.000000 -1.000000
v -2.000000 0.500000 -1.000000
v -2.000000 0.500000 2.000000
v -2.000000 -0.000000 -1.000000
v -2.000000 0.000000 2.000000
v 0.000000 2.000000 1.500000
v 0.000000 2.000000 -0.500000
v 0.000000 0.500000 1.500000
v 0.000000 0.500000 -0.500000
v -1.000000 2.000000 -0.500000
v -1.000000 2.000000 1.500000
v -1.000000 0.500000 -0.500000
v -1.000000 0.500000 1.500000
v -1.000000 1.250000 1.000000
v -1.000000 1.250000 -0.000000
v -1.000000 0.500000 1.000000
v -1.000000 0.500000 -0.000000
v -2.000000 1.250000 -0.000000
v -2.000000 1.250000 1.000000
v -2.000000 0.500000 -0.000000
v -2.000000 0.500000 1.000000
v 1.000000 1.250000 -0.000000
v 1.000000 1.250000 1.000000
v 1.000000 0.500000 -0.000000
v 1.000000 0.500000 1.000000
v 2.000000 1.250000 1.000000
v 2.000000 1.250000 -0.000000
v 2.000000 0.500000 1.000000
v 2.000000 0.500000 -0.000000
v -0.062437 2.437562 0.937562
v -0.062437 2.437562 0.062437
v -0.937562 2.437562 0.062437
v -0.937562 2.437562 0.937562
v 1.937500 1.312500 0.687500
v 1.937500 1.312500 0.312500
v 1.937500 1.687500 0.687500
v 1.937500 1.687500 0.312500
v 2.000000 1.312500 0.312500
v 2.000000 1.312500 0.687500
v 2.000000 1.687500 0.312500
v 2.000000 1.687500 0.687500
v 0.000000 1.000000 2.000000
v 0.000000 1.000000 1.000000
v 0.000000 0.500000 2.000000
v 0.000000 1.000000 1.500000
v -1.000000 1.000000 1.000000
v -1.000000 1.000000 2.000000
v -1.000000 0.500000 2.000000
v -1.000000 1.000000 1.500000
v 0.000000 2.000000 -1.000000
v -1.000000 2.000000 -1.000000
v 0.000000 1.000000 -1.000000
v -1.000000 1.000000 -1.000000
v -1.000000 1.000000 -0.500000
v 0.000000 1.000000 -0.500000
v 0.250000 1.250000 1.500000
v 0.250000 1.250000 -0.500000
v 0.250000 0.500000 1.500000
v 0.250000 0.500000 -0.500000
v 0.000000 1.250000 -0.500000
v 0.000000 1.250000 1.500000
v 1.312500 1.250000 1.500000
v 1.312500 1.250000 -0.500000
v 1.312500 0.500000 1.500000
v 1.312500 0.500000 -0.500000
v 1.062500 1.250000 -0.500000
v 1.062500 1.250000 1.500000
v 1.062500 0.500000 -0.500000
v 1.062500 0.500000 1.500000
v 1.062500 1.250000 0.500000
v 1.062500 1.250000 -0.000000
v 1.062500 1.250000 1.000000
v 1.312500 1.250000 0.500000
v 1.312500 1.250000 1.000000
v 1.312500 1.250000 -0.000000
v 1.312500 0.875000 0.500000
v 1.062500 0.875000 0.500000
v 1.062500 1.250000 -0.031250
v 1.062500 1.250000 -0.281250
v 1.062500 0.500000 -0.031250
v 1.062500 0.500000 -0.281250
v 0.250000 1.250000 -0.281250
v 0.250000 1.250000 -0.031250
v 0.250000 0.500000 -0.281250
v 0.250000 0.500000 -0.031250
v 1.062500 1.250000 1.281250
v 1.062500 1.250000 1.031250
v 1.062500 0.500000 1.281250
v 1.062500 0.500000 1.031250
v 0.250000 1.250000 1.031250
v 0.250000 1.250000 1.281250
v 0.250000 0.500000 1.031250
v 0.250000 0.500000 1.281250
v -0.750000 1.000000 -0.875000
v -0.875000 1.000000 -0.875000
v -0.750000 0.250000 -0.875000
v -0.875000 0.250000 -0.875000
v -0.875000 1.000000 -0.625000
v -0.750000 1.000000 -0.625000
v -0.875000 0.250000 -0.625000
v -0.750000 0.250000 -0.625000
v -0.125000 1.000000 -0.875000
v -0.250000 1.000000 -0.875000
v -0.125000 0.250000 -0.875000
v -0.250000 0.250000 -0.875000
v -0.250000 1.000000 -0.625000
v -0.125000 1.000000 -0.625000
v -0.250000 0.250000 -0.625000
v -0.125000 0.250000 -0.625000
v -1.062500 1.750000 0.968750
v -1.062500 1.750000 0.031250
v -1.062500 1.250000 0.968750
v -1.062500 1.250000 0.031250
v -1.937500 1.750000 0.031250
v -1.937500 1.750000 0.968750
v -1.937500 1.250000 0.031250
v -1.937500 1.250000 0.968750
v 1.062500 1.750000 0.031250
v 1.062500 1.750000 0.968750
v 1.062500 1.250000 0.031250
v 1.062500 1.250000 0.968750
v 1.937500 1.750000 0.968750
v 1.937500 1.750000 0.031250
v 1.937500 1.250000 0.968750
v 1.937500 1.250000 0.031250
v -0.125000 3.000000 0.125000
v -0.125000 3.000000 -0.000000
v -0.125000 2.000000 0.125000
v -0.125000 2.000000 -0.000000
v -1.000000 3.000000 -0.000000
v -1.000000 3.000000 0.125000
v -1.000000 2.000000 -0.000000
v -1.000000 2.000000 0.125000
v -0.125000 3.000000 0.875000
v 0.000000 3.000000 0.875000
v -0.125000 2.000000 0.875000
v 0.000000 2.000000 0.875000
v 0.000000 3.000000 -0.000000
v 0.000000 2.000000 -0.000000
v 0.000000 3.000000 1.000000
v 0.000000 2.000000 1.000000
v -0.875000 3.000000 0.875000
v -0.875000 3.000000 1.000000
v -0.875000 2.000000 0.875000
v -0.875000 2.000000 1.000000
v -0.875000 3.000000 0.125000
v -0.875000 2.000000 0.125000
v -1.000000 3.000000 1.000000
v -1.000000 2.000000 1.000000
vt 0.533333 -0.000000
vt 0.266667 -0.000000
vt 0.266667 0.062500
vt 0.533333 0.062500
vt 0.733333 -0.000000
vt 0.733333 0.062500
vt 1.000000 -0.000000
vt 1.000000 0.062500
vt 0.066667 -0.000000
vt 0.066667 0.062500
vt 0.266667 0.437500
vt 0.533333 0.437500
vt 0.800000 0.062500
vt 0.800000 0.437500
vt 0.133333 0.062500
vt 0.066667 0.250000
vt 0.133333 0.250000
vt 0.266667 0.250000
vt 0.200000 0.500000
vt 0.266667 0.500000
vt 0.200000 0.250000
vt 0.483333 0.656250
vt 0.416667 0.656250
vt 0.416667 0.750000
vt 0.483333 0.750000
vt 0.616667 0.656250
vt 0.550000 0.656250
vt 0.550000 0.750000
vt 0.616667 0.750000
vt 0.350000 0.656250
vt 0.350000 0.750000
vt 0.416667 0.875000
vt 0.483333 0.875000
vt 0.425000 0.640625
vt 0.483333 0.640625
vt 0.483333 0.531250
vt 0.425000 0.531250
vt 0.566667 0.531250
vt 0.562500 0.531250
vt 0.562500 0.578125
vt 0.566667 0.578125
vt 0.591667 0.531250
vt 0.591667 0.578125
vt 0.595833 0.531250
vt 0.595833 0.578125
vt 0.537500 0.531250
vt 0.537500 0.578125
vt 0.562500 0.625000
vt 0.566667 0.625000
vt 0.570833 0.578125
vt 0.570833 0.625000
vt 0.900000 0.187500
vt 0.933333 0.187500
vt 0.933333 0.125000
vt 0.900000 0.125000
vt 0.933333 0.062500
vt 1.000000 0.125000
vt 0.933333 0.250000
vt 1.000000 0.250000
vt 0.900000 0.062500
vt 0.833333 0.062500
vt 0.800000 0.187500
vt 0.833333 0.187500
vt 0.866667 0.187500
vt 0.866667 0.312500
vt 0.900000 0.312500
vt 0.800000 0.312500
vt 0.833333 0.312500
vt 0.350000 0.437500
vt 0.333333 0.437500
vt 0.333333 0.531250
vt 0.350000 0.531250
vt 0.483333 0.437500
vt 0.500000 0.437500
vt 0.500000 0.531250
vt 0.333333 0.781250
vt 0.350000 0.781250
vt 0.650000 0.437500
vt 0.633333 0.437500
vt 0.633333 0.531250
vt 0.650000 0.531250
vt 0.566667 0.484375
vt 0.783333 0.437500
vt 0.783333 0.531250
vt 0.800000 0.531250
vt 0.633333 0.593750
vt 0.650000 0.593750
vt 0.633333 0.656250
vt 0.650000 0.656250
vt 0.716667 0.484375
vt 0.683333 0.531250
vt 0.716667 0.531250
vt 0.750000 0.531250
vt 0.533333 0.531250
vt 0.600000 0.531250
vt 0.483333 0.625000
vt 0.537500 0.625000
vt 0.537500 0.656250
vt 0.975000 0.250000
vt 0.958333 0.250000
vt 0.958333 0.343750
vt 0.975000 0.343750
vt 0.983333 0.250000
vt 0.983333 0.343750
vt 1.000000 0.343750
vt 0.950000 0.250000
vt 0.950000 0.343750
vt 0.770833 0.710938
vt 0.712500 0.710938
vt 0.712500 0.773438
vt 0.770833 0.773438
vt 0.833333 0.710938
vt 0.833333 0.773438
vt 0.891667 0.710938
vt 0.891667 0.773438
vt 0.650000 0.710938
vt 0.650000 0.773438
vt 0.712500 0.890625
vt 0.770833 0.890625
vt 0.770833 0.531250
vt 0.712500 0.531250
vt 0.712500 0.593750
vt 0.770833 0.593750
vt 0.833333 0.531250
vt 0.833333 0.593750
vt 0.891667 0.531250
vt 0.891667 0.593750
vt 0.408333 0.531250
vt 0.408333 0.656250
vt 0.416667 0.531250
vt 0.416667 0.640625
vn -0.0000 -0.0000 -1.0000
vn 1.0000 -0.0000 -0.0000
vn -0.0000 -0.0000 1.0000
vn -1.0000 -0.0000 -0.0000
vn -0.0000 1.0000 -0.0000
vn -0.0000 -1.0000 -0.0000
usemtl grist_mill
f 4/1/1 7/2/1 5/3/1 2/4/1
f 3/5/2 4/1/2 2/4/2 1/6/2
f 8/7/3 3/5/3 1/6/3 6/8/3
f 7/2/4 8/9/4 6/10/4 5/3/4
f 6/11/5 1/12/5 2/4/5 5/3/5
f 7/4/6 4/13/6 3/14/6 8/12/6
f 12/15/1 15/10/1 13/16/1 10/17/1
f 11/3/2 12/15/2 10/17/2 9/18/2
f 16/15/3 11/10/3 9/16/3 14/17/3
f 15/3/4 16/15/4 14/17/4 13/18/4
f 14/19/5 9/20/5 10/18/5 13/21/5
f 20/22/1 23/23/1 21/24/1 18/25/1
f 24/26/3 19/27/3 17/28/3 22/29/3
f 23/23/4 24/30/4 22/31/4 21/24/4
f 22/32/5 17/33/5 18/25/5 21/24/5
f 28/22/3 31/23/3 29/24/3 26/25/3
f 27/27/4 28/22/4 26/25/4 25/28/4
f 32/26/1 27/27/1 25/28/1 30/29/1
f 31/23/2 32/30/2 30/31/2 29/24/2
f 30/32/5 25/33/5 26/25/5 29/24/5
f 36/34/5 33/35/5 34/36/5 35/37/5
f 40/38/1 43/39/1 41/40/1 38/41/1
f 39/42/4 40/38/4 38/41/4 37/43/4
f 44/44/3 39/42/3 37/43/3 42/45/3
f 43/39/2 44/46/2 42/47/2 41/40/2
f 42/48/6 37/49/6 38/41/6 41/40/6
f 43/41/5 40/50/5 39/51/5 44/49/5
f 48/52/2 45/53/2 47/54/2 11/55/2
f 51/56/3 47/8/3 45/57/3 50/54/3
f 50/58/5 45/59/5 46/57/5 49/54/5 52/53/5
f 50/55/4 52/60/4 16/56/4 51/54/4
f 56/61/4 57/13/4 13/62/4 54/63/4
f 55/60/1 56/61/1 54/63/1 53/52/1
f 58/52/2 55/64/2 53/65/2 10/66/2
f 10/67/5 53/68/5 54/63/5 13/62/5
f 57/63/6 56/64/6 55/65/6 58/68/6
f 62/69/1 12/70/1 63/71/1 60/72/1
f 61/73/2 62/69/2 60/72/2 59/36/2
f 11/74/3 61/73/3 59/36/3 64/75/3
f 64/76/5 59/77/5 60/72/5 63/71/5
f 68/78/1 71/79/1 69/80/1 66/81/1
f 71/79/4 72/74/4 80/82/4
f 72/14/3 67/83/3 65/84/3 70/85/3
f 74/86/5 78/87/5 66/81/5 69/80/5
f 70/88/5 65/89/5 77/87/5 75/86/5
f 67/83/2 68/78/2 79/90/2
f 68/78/2 66/81/2 79/90/2
f 66/81/2 78/91/2 79/90/2
f 78/91/2 76/92/2 79/90/2
f 76/92/2 77/93/2 79/90/2
f 77/93/2 65/84/2 79/90/2
f 65/84/2 67/83/2 79/90/2
f 72/74/4 70/75/4 80/82/4
f 70/75/4 75/94/4 80/82/4
f 75/94/4 73/38/4 80/82/4
f 73/38/4 74/95/4 80/82/4
f 74/95/4 69/80/4 80/82/4
f 69/80/4 71/79/4 80/82/4
f 84/46/1 87/36/1 85/96/1 82/97/1
f 88/46/3 83/36/3 81/96/3 86/97/3
f 86/22/5 81/98/5 82/97/5 85/96/5
f 92/46/1 95/36/1 93/96/1 90/97/1
f 96/46/3 91/36/3 89/96/3 94/97/3
f 94/22/5 89/98/5 90/97/5 93/96/5
f 100/99/4 103/100/4 101/101/4 98/102/4
f 99/103/1 100/99/1 98/102/1 97/104/1
f 104/59/2 99/103/2 97/104/2 102/105/2
f 103/100/3 104/106/3 102/107/3 101/101/3
f 108/99/4 111/100/4 109/101/4 106/102/4
f 107/103/1 108/99/1 106/102/1 105/104/1
f 112/59/2 107/103/2 105/104/2 110/105/2
f 111/100/3 112/106/3 110/107/3 109/101/3
f 116/108/1 119/109/1 117/110/1 114/111/1
f 115/112/2 116/108/2 114/111/2 113/113/2
f 120/114/3 115/112/3 113/113/3 118/115/3
f 119/109/4 120/116/4 118/117/4 117/110/4
f 118/118/5 113/119/5 114/111/5 117/110/5
f 124/120/3 127/121/3 125/122/3 122/123/3
f 123/124/4 124/120/4 122/123/4 121/125/4
f 128/126/1 123/124/1 121/125/1 126/127/1
f 127/121/2 128/81/2 126/87/2 125/122/2
f 126/109/5 121/108/5 122/123/5 125/122/5
f 132/128/1 135/72/1 133/30/1 130/129/1
f 136/72/3 131/128/3 129/129/3 134/30/3
f 135/130/4 136/128/4 134/129/4 133/23/4
f 134/131/5 129/34/5 130/37/5 133/130/5
f 140/128/2 142/72/2 141/30/2 138/129/2
f 132/72/4 139/128/4 137/129/4 130/30/4
f 142/130/1 132/128/1 130/129/1 141/23/1
f 130/131/5 137/34/5 138/37/5 141/130/5
f 140/72/1 147/128/1 145/129/1 138/30/1
f 144/130/2 140/128/2 138/129/2 143/23/2
f 148/128/3 144/72/3 143/30/3 146/129/3
f 146/131/5 143/34/5 138/37/5 145/130/5
f 136/128/4 152/72/4 151/30/4 134/129/4
f 148/72/2 150/128/2 149/129/2 146/30/2
f 152/130/3 148/128/3 146/129/3 151/23/3
f 146/131/5 149/34/5 134/37/5 151/130/5
