# Blender 3.6.0
# www.blender.org
mtllib power_loom.mtl

o base
v 2.000000 0.250000 2.000000
v 2.000000 0.250000 -1.000000
v 2.000000 0.000000 2.000000
v 2.000000 -0.000000 -1.000000
v -1.000000 0.250000 -1.000000
v -1.000000 0.250000 2.000000
v -1.000000 -0.000000 -1.000000
v -1.000000 0.000000 2.000000
v 1.312500 1.000000 1.625000
v 1.312500 1.000000 -0.625000
v 1.312500 0.250000 1.625000
v 1.312500 0.250000 -0.625000
v -0.437500 1.000000 -0.625000
v -0.437500 1.000000 1.625000
v -0.437500 0.250000 -0.625000
v -0.437500 0.250000 1.625000
v 1.375000 2.937500 2.000000
v 1.375000 2.937500 1.625000
v 1.375000 0.250000 2.000000
v 1.375000 0.250000 1.625000
v 0.500000 2.937500 1.625000
v 0.500000 2.937500 2.000000
v 0.500000 0.250000 1.625000
v 0.500000 0.250000 2.000000
v 1.375000 2.937500 -0.625000
v 1.375000 2.937500 -1.000000
v 1.375000 0.250000 -0.625000
v 1.375000 0.250000 -1.000000
v 0.500000 2.937500 -1.000000
v 0.500000 2.937500 -0.625000
v 0.500000 0.250000 -1.000000
v 0.500000 0.250000 -0.625000
v 1.375000 2.562500 1.625000
v 1.375000 2.562500 -0.625000
v 0.500000 2.562500 -0.625000
v 0.500000 2.562500 1.625000
v 2.000000 1.000000 3.000000
v 2.000000 1.000000 2.000000
v 2.000000 0.000000 3.000000
v 0.000000 1.000000 2.000000
v 0.000000 1.000000 3.000000
v 0.000000 0.000000 2.000000
v 0.000000 0.000000 3.000000
v 1.000000 2.000000 -1.000000
v 1.000000 2.000000 -2.000000
v 1.000000 -0.000000 -1.000000
v 1.000000 -0.000000 -2.000000
v 0.000000 2.000000 -2.000000
v 0.000000 2.000000 -1.000000
v 0.000000 -0.000000 -2.000000
v 0.000000 -0.000000 -1.000000
v -0.375000 1.750000 1.937500
v -0.375000 1.750000 1.687500
v -0.375000 0.250000 1.937500
v -0.375000 0.250000 1.687500
v -1.000000 1.750000 1.687500
v -1.000000 1.750000 1.937500
v -1.000000 0.250000 1.687500
v -1.000000 0.250000 1.937500
v -1.000000 1.750000 -0.937500
v -1.000000 1.750000 -0.687500
v -1.000000 0.250000 -0.937500
v -1.000000 0.250000 -0.687500
v -0.375000 1.750000 -0.687500
v -0.375000 1.750000 -0.937500
v -0.375000 0.250000 -0.687500
v -0.375000 0.250000 -0.937500
v 1.343750 1.750000 -0.937500
v 1.343750 1.750000 -0.687500
v 1.343750 0.250000 -0.937500
v 1.343750 0.250000 -0.687500
v 1.968750 1.750000 -0.687500
v 1.968750 1.750000 -0.937500
v 1.968750 0.250000 -0.687500
v 1.968750 0.250000 -0.937500
v 1.968750 1.750000 1.937500
v 1.968750 1.750000 1.687500
v 1.968750 0.250000 1.937500
v 1.968750 0.250000 1.687500
v 1.343750 1.750000 1.687500
v 1.343750 1.750000 1.937500
v 1.343750 0.250000 1.687500
v 1.343750 0.250000 1.937500
v 0.500000 1.250000 2.000000
v 0.500000 1.250000 1.625000
v -0.500000 1.250000 1.625000
v -0.500000 1.250000 2.000000
v -0.500000 0.250000 1.625000
v -0.500000 0.250000 2.000000
v 0.500000 1.250000 -0.625000
v 0.500000 1.250000 -1.000000
v -0.500000 1.250000 -1.000000
v -0.500000 1.250000 -0.625000
v -0.500000 0.250000 -1.000000
v -0.500000 0.250000 -0.625000
v 1.718750 1.593750 1.687500
v 1.718750 1.593750 -0.687500
v 1.718750 1.406250 1.687500
v 1.718750 1.406250 -0.687500
v 1.531250 1.593750 1.687500
v 1.531250 1.593750 -0.687500
v 1.531250 1.406250 1.687500
v 1.531250 1.406250 -0.687500
v -0.593750 1.593750 1.687500
v -0.593750 1.593750 -0.687500
v -0.593750 1.406250 1.687500
v -0.593750 1.406250 -0.687500
v -0.781250 1.593750 1.687500
v -0.781250 1.593750 -0.687500
v -0.781250 1.406250 1.687500
v -0.781250 1.406250 -0.687500
vt 0.590909 0.445312
vt 0.727273 0.445312
vt 0.727273 0.476562
vt 0.590909 0.476562
vt 1.000000 0.445312
vt 1.000000 0.820312
vt 0.863636 0.820312
vt 0.863636 0.445312
vt 0.727273 0.820312
vt 0.426136 -0.000000
vt 0.505682 -0.000000
vt 0.505682 0.093750
vt 0.426136 0.093750
vt 0.323864 -0.000000
vt 0.323864 0.093750
vt 0.607955 -0.000000
vt 0.607955 0.218750
vt 0.505682 0.218750
vt 0.190341 -0.000000
vt 0.230114 -0.000000
vt 0.230114 0.335938
vt 0.190341 0.335938
vt 0.247159 -0.000000
vt 0.247159 0.335938
vt 0.286932 -0.000000
vt 0.286932 0.335938
vt 0.190341 0.109375
vt 0.173295 0.109375
vt 0.173295 -0.000000
vt 0.119318 -0.000000
vt 0.119318 0.281250
vt 0.102273 0.281250
vt 0.102273 -0.000000
vt 0.159091 -0.000000
vt 0.159091 0.281250
vt 0.062500 0.281250
vt 0.062500 -0.000000
vt 0.818182 -0.000000
vt 0.909091 -0.000000
vt 0.909091 0.125000
vt 0.818182 0.125000
vt 0.954545 -0.000000
vt 0.954545 0.125000
vt 1.000000 -0.000000
vt 1.000000 0.125000
vt 0.727273 -0.000000
vt 0.727273 0.125000
vt 0.750000 0.671875
vt 0.840909 0.671875
vt 0.840909 0.546875
vt 0.750000 0.546875
vt 0.909091 0.164062
vt 0.954545 0.164062
vt 0.954545 0.414062
vt 0.909091 0.414062
vt 1.000000 0.164062
vt 1.000000 0.414062
vt 0.863636 0.164062
vt 0.909091 0.289062
vt 0.863636 0.289062
vt 0.818182 0.289062
vt 0.818182 0.164062
vt 0.440341 0.234375
vt 0.468750 0.234375
vt 0.468750 0.421875
vt 0.440341 0.421875
vt 0.400568 0.234375
vt 0.411932 0.234375
vt 0.411932 0.421875
vt 0.400568 0.421875
vt 0.428977 0.421875
vt 0.428977 0.453125
vt 0.400568 0.453125
vt 0.497159 0.234375
vt 0.497159 0.421875
vt 0.562500 0.250000
vt 0.607955 0.250000
vt 0.607955 0.375000
vt 0.562500 0.375000
vt 0.545455 0.250000
vt 0.545455 0.375000
vt 0.590909 0.375000
vt 0.590909 0.421875
vt 0.545455 0.421875
vt 0.744318 0.125000
vt 0.744318 0.148438
vt 0.636364 0.148438
vt 0.636364 0.125000
vt 0.860795 0.125000
vt 0.860795 0.148438
vt 0.752841 0.148438
vt 0.752841 0.125000
vt 0.744318 0.445312
vt 0.752841 0.445312
vt 0.761364 0.445312
vt 0.761364 0.148438
vn -0.0000 -0.0000 -1.0000
vn 1.0000 -0.0000 -0.0000
vn -0.0000 -0.0000 1.0000
vn -1.0000 -0.0000 -0.0000
vn -0.0000 1.0000 -0.0000
vn -0.0000 -1.0000 -0.0000
usemtl base
f 4/1/1 7/2/1 5/3/1 2/4/1
f 3/1/2 4/2/2 2/3/2 1/4/2
f 8/1/3 3/2/3 1/3/3 6/4/3
f 7/1/4 8/2/4 6/3/4 5/4/4
f 6/5/5 1/6/5 2/7/5 5/8/5
f 7/7/6 4/8/6 3/2/6 8/9/6
f 12/10/1 15/11/1 13/12/1 10/13/1
f 11/14/2 12/10/2 10/13/2 9/15/2
f 16/10/3 11/11/3 9/12/3 14/13/3
f 15/14/4 16/10/4 14/13/4 13/15/4
f 14/11/5 9/16/5 10/17/5 13/18/5
f 20/19/1 23/20/1 21/21/1 18/22/1
f 19/20/2 20/23/2 18/24/2 17/21/2
f 24/23/3 19/25/3 17/26/3 22/24/3
f 23/20/4 24/23/4 22/24/4 21/21/4
f 22/19/5 17/27/5 18/28/5 21/29/5
f 28/23/1 31/25/1 29/26/1 26/24/1
f 27/20/2 28/23/2 26/24/2 25/21/2
f 32/20/3 27/19/3 25/22/3 30/21/3
f 31/20/4 32/23/4 30/24/4 29/21/4
f 30/19/5 25/27/5 26/28/5 29/29/5
f 33/30/2 34/31/2 25/32/2 18/33/2
f 35/30/4 36/31/4 21/32/4 30/33/4
f 21/30/5 18/34/5 25/35/5 30/31/5
f 35/32/6 34/36/6 33/37/6 36/33/6
f 3/38/1 42/39/1 40/40/1 38/41/1
f 39/39/2 3/42/2 38/43/2 37/40/2
f 43/38/3 39/39/3 37/40/3 41/41/3
f 42/44/4 43/42/4 41/43/4 40/45/4
f 41/46/5 37/38/5 38/41/5 40/47/5
f 42/48/6 3/49/6 39/50/6 43/51/6
f 47/52/1 50/53/1 48/54/1 45/55/1
f 46/53/2 47/56/2 45/57/2 44/54/2
f 51/53/3 46/56/3 44/57/3 49/54/3
f 50/53/4 51/56/4 49/57/4 48/54/4
f 49/58/5 44/52/5 45/59/5 48/60/5
f 50/61/6 47/60/6 46/58/6 51/62/6
f 55/63/1 58/64/1 56/65/1 53/66/1
f 54/67/2 55/68/2 53/69/2 52/70/2
f 59/68/3 54/63/3 52/66/3 57/69/3
f 58/67/4 59/68/4 57/69/4 56/70/4
f 57/70/5 52/71/5 53/72/5 56/73/5
f 63/63/3 66/64/3 64/65/3 61/66/3
f 62/67/4 63/68/4 61/69/4 60/70/4
f 67/68/1 62/63/1 60/66/1 65/69/1
f 66/67/2 67/68/2 65/69/2 64/70/2
f 65/70/5 60/71/5 61/72/5 64/73/5
f 71/64/3 74/74/3 72/75/3 69/65/3
f 75/68/1 70/63/1 68/66/1 73/69/1
f 74/67/2 75/68/2 73/69/2 72/70/2
f 73/70/5 68/71/5 69/72/5 72/73/5
f 79/64/1 82/74/1 80/75/1 77/65/1
f 78/67/2 79/68/2 77/69/2 76/70/2
f 83/68/3 78/63/3 76/66/3 81/69/3
f 81/70/5 76/71/5 77/72/5 80/73/5
f 23/76/1 88/77/1 86/78/1 85/79/1
f 89/76/3 24/77/3 84/78/3 87/79/3
f 88/80/4 89/76/4 87/79/4 86/81/4
f 87/81/5 84/82/5 85/83/5 86/84/5
f 31/76/1 94/77/1 92/78/1 91/79/1
f 95/76/3 32/77/3 90/78/3 93/79/3
f 94/80/4 95/76/4 93/79/4 92/81/4
f 93/81/5 90/82/5 91/83/5 92/84/5
f 99/85/2 97/86/2 96/87/2 98/88/2
f 102/89/4 100/90/4 101/91/4 103/92/4
f 96/93/5 97/86/5 101/91/5 100/94/5
f 99/91/6 98/94/6 102/95/6 103/96/6
f 107/85/2 105/86/2 104/87/2 106/88/2
f 110/89/4 108/90/4 109/91/4 111/92/4
f 104/93/5 105/86/5 109/91/5 108/94/5
f 107/91/6 106/94/6 110/95/6 111/96/6
