# Blender 3.6.0
# www.blender.org
mtllib thresher.mtl

o base
v 2.000000 0.500000 2.000000
v 2.000000 0.500000 -1.000000
v 2.000000 0.000000 2.000000
v 2.000000 -0.000000 -1.000000
v -1.000000 0.500000 -1.000000
v -1.000000 0.500000 2.000000
v -1.000000 -0.000000 -1.000000
v -1.000000 0.000000 2.000000
v 0.937563 2.500062 0.937562
v 0.937563 2.500062 0.062437
v 0.937563 2.374938 0.937562
v 0.937563 2.374938 0.062437
v 0.062438 2.500062 0.062437
v 0.062438 2.500062 0.937562
v 0.062438 2.374938 0.062437
v 0.062438 2.374938 0.937562
v 1.000000 1.000000 -0.000000
v 1.000000 1.000000 -1.000000
v 1.000000 0.500000 -0.000000
v 1.000000 0.500000 -1.000000
v 0.000000 1.000000 -1.000000
v 0.000000 1.000000 -0.000000
v 0.000000 0.500000 -1.000000
v 0.000000 0.500000 -0.000000
v 1.499938 1.111737 1.437437
v 1.499938 2.437562 0.111612
v 1.499938 0.562563 0.888263
v 1.499938 1.888388 -0.437563
v -0.500062 2.437562 0.111612
v -0.500062 1.111737 1.437437
v -0.500062 1.888388 -0.437563
v -0.500062 0.562563 0.888263
v 1.500000 1.888325 1.437500
v 1.500000 1.888325 -0.437500
v 1.500000 1.111675 1.437500
v 1.500000 1.111675 -0.437500
v -0.500000 1.888325 -0.437500
v -0.500000 1.888325 1.437500
v -0.500000 1.111675 -0.437500
v -0.500000 1.111675 1.437500
v 1.500000 2.437500 0.888325
v 1.500000 0.562500 0.111675
v -0.500000 2.437500 0.888325
v -0.500000 0.562500 0.111675
v 1.500000 2.437500 0.111675
v 1.500000 0.562500 0.888325
v -0.500000 2.437500 0.111675
v -0.500000 0.562500 0.888325
v -0.062500 1.824414 -0.375000
v -0.062500 1.824414 -0.562500
v -0.062500 0.449414 -0.375000
v -0.062500 0.449414 -0.562500
v -0.437500 1.824414 -0.562500
v -0.437500 1.824414 -0.375000
v -0.437500 0.449414 -0.562500
v -0.437500 0.449414 -0.375000
v 1.437500 1.824414 -0.375000
v 1.437500 1.824414 -0.562500
v 1.437500 0.449414 -0.375000
v 1.437500 0.449414 -0.562500
v 1.062500 1.824414 -0.562500
v 1.062500 1.824414 -0.375000
v 1.062500 0.449414 -0.562500
v 1.062500 0.449414 -0.375000
v -0.062500 1.824414 1.562500
v -0.062500 1.824414 1.375000
v -0.062500 0.449415 1.562500
v -0.062500 0.449414 1.375000
v -0.437500 1.824414 1.375000
v -0.437500 1.824414 1.562500
v -0.437500 0.449414 1.375000
v -0.437500 0.449415 1.562500
v 1.437500 1.824414 1.562500
v 1.437500 1.824414 1.375000
v 1.437500 0.449415 1.562500
v 1.437500 0.449414 1.375000
v 1.062500 1.824414 1.375000
v 1.062500 1.824414 1.562500
v 1.062500 0.449414 1.375000
v 1.062500 0.449415 1.562500
v -0.500000 2.000000 1.000000
v -0.500000 2.000000 -0.000000
v -0.500000 1.000000 1.000000
v -0.500000 1.000000 -0.000000
v -1.000000 2.000000 -0.000000
v -1.000000 2.000000 1.000000
v -1.000000 1.000000 -0.000000
v -1.000000 1.000000 1.000000
v 0.875000 1.875000 2.000000
v 0.875000 1.875000 1.000000
v 0.875000 1.125000 2.000000
v 0.875000 1.125000 1.000000
v 0.125000 1.875000 1.000000
v 0.125000 1.875000 2.000000
v 0.125000 1.125000 1.000000
v 0.125000 1.125000 2.000000
v -0.625000 1.250000 0.250000
v -0.625000 1.250000 0.125000
v -0.625000 0.500000 0.250000
v -0.625000 0.500000 0.125000
v -0.875000 1.250000 0.125000
v -0.875000 1.250000 0.250000
v -0.875000 0.500000 0.125000
v -0.875000 0.500000 0.250000
v -0.625000 1.250000 0.875000
v -0.625000 1.250000 0.750000
v -0.625000 0.500000 0.875000
v -0.625000 0.500000 0.750000
v -0.875000 1.250000 0.750000
v -0.875000 1.250000 0.875000
v -0.875000 0.500000 0.750000
v -0.875000 0.500000 0.875000
v 1.000000 3.000000 0.125000
v 1.000000 3.000000 -0.000000
v 1.000000 2.000000 0.125000
v 1.000000 2.000000 -0.000000
v 0.125000 3.000000 -0.000000
v 0.125000 3.000000 0.125000
v 0.125000 2.000000 -0.000000
v 0.125000 2.000000 0.125000
v 0.000000 3.000000 -0.000000
v 0.000000 2.000000 -0.000000
v 0.000000 3.000000 0.875000
v 0.125000 3.000000 0.875000
v 0.000000 2.000000 0.875000
v 0.125000 2.000000 0.875000
v 0.875000 3.000000 0.875000
v 0.875000 2.000000 0.875000
v 0.000000 3.000000 1.000000
v 0.875000 3.000000 1.000000
v 0.000000 2.000000 1.000000
v 0.875000 2.000000 1.000000
v 1.000000 3.000000 1.000000
v 1.000000 2.000000 1.000000
v 0.875000 3.000000 0.125000
v 0.875000 2.000000 0.125000
v 2.000000 2.000000 1.000000
v 2.000000 2.000000 -0.000000
v 2.000000 1.000000 1.000000
v 2.000000 1.000000 -0.000000
v 1.000000 1.000000 1.000000
v 1.495230 2.438415 0.111612
v 1.495230 1.889241 -0.437563
v 1.495292 1.889178 -0.437500
v 1.495292 1.889178 1.437500
v 1.495292 2.438353 0.888325
v 1.495292 0.563353 0.111675
v 1.495292 2.438353 0.111675
v -0.500000 0.562500 0.111674
v -0.500000 1.111675 1.437499
v -0.500000 1.888326 1.437499
v 1.500000 0.562501 0.111675
v 1.500000 1.111675 1.437499
v 1.500000 1.888325 1.437499
v 1.500000 2.437500 0.111674
v 1.500000 1.500000 0.500000
v -0.500000 1.500000 0.500000
vt 0.250000 0.460938
vt 0.500000 0.460938
vt 0.500000 0.523438
vt 0.250000 0.523438
vt -0.000000 0.460938
vt -0.000000 0.523438
vt 0.750000 0.460938
vt 1.000000 0.460938
vt 1.000000 0.523438
vt 0.750000 0.523438
vt 0.500000 0.898438
vt 0.250000 0.898438
vt 0.750000 0.898438
vt 0.536458 1.523438
vt 0.604167 1.523438
vt 0.604167 1.539062
vt 0.536458 1.539062
vt 0.463542 1.523438
vt 0.463542 1.539062
vt 0.677083 1.523438
vt 0.750000 1.523438
vt 0.750000 1.539062
vt 0.677083 1.539062
vt 0.250000 0.820312
vt 0.177083 0.820312
vt 0.177083 0.710938
vt 0.250000 0.710938
vt 0.750000 0.250000
vt 0.833333 0.250000
vt 0.833333 0.312500
vt 0.750000 0.312500
vt 0.666667 0.250000
vt 0.666667 0.312500
vt 0.916667 0.250000
vt 1.000000 0.250000
vt 1.000000 0.312500
vt 0.916667 0.312500
vt 0.833333 0.437500
vt 0.750000 0.437500
vt 0.083333 0.710938
vt 0.083333 0.523438
vt 0.296875 0.000000
vt 0.328125 0.000000
vt 0.328125 0.171875
vt 0.296875 0.171875
vt 0.281250 0.000000
vt 0.281250 0.171875
vt 0.343750 0.000000
vt 0.375000 0.000000
vt 0.375000 0.171875
vt 0.343750 0.171875
vt 0.328125 0.195312
vt 0.296875 0.195312
vt 0.833333 0.523438
vt 0.875000 0.523438
vt 0.875000 0.648438
vt 0.833333 0.648438
vt 0.958333 0.523438
vt 1.000000 0.648438
vt 0.958333 0.648438
vt 0.875000 0.773438
vt 0.833333 0.773438
vt 0.916667 0.648438
vt 0.916667 0.773438
vt 0.708333 0.000000
vt 0.791667 0.000000
vt 0.791667 0.093750
vt 0.708333 0.093750
vt 0.937500 0.000000
vt 1.000000 0.000000
vt 1.000000 0.093750
vt 0.937500 0.093750
vt 0.932292 0.000000
vt 0.848958 0.000000
vt 0.848958 0.093750
vt 0.932292 0.093750
vt 0.854167 0.218750
vt 0.791667 0.218750
vt 0.854167 0.093750
vt 0.229167 0.000000
vt 0.250000 0.000000
vt 0.250000 0.093750
vt 0.229167 0.093750
vt 0.260417 0.000000
vt 0.281250 0.093750
vt 0.260417 0.093750
vt 0.156250 0.710938
vt 0.156250 0.835938
vt 0.083333 0.835938
vt 0.166667 0.710938
vt 0.166667 0.835938
vt 0.166667 0.820312
vt 0.182292 0.085938
vt 0.182292 0.195312
vt 0.093750 0.140625
vt 0.458333 -0.000000
vt 0.541667 0.000000
vt 0.541667 0.125000
vt 0.458333 0.125000
vt 0.375000 0.125000
vt 0.625000 -0.000000
vt 0.708333 0.125000
vt 0.625000 0.125000
vt 0.541667 0.250000
vt 0.458333 0.250000
vt 0.625000 0.250000
vt 0.130208 0.273438
vt 0.057292 0.273438
vt 0.005208 0.195312
vt 0.005208 0.085938
vt 0.057292 0.007812
vt 0.130208 0.007812
vn -0.0000 -0.0000 -1.0000
vn 1.0000 -0.0000 -0.0000
vn -0.0000 -0.0000 1.0000
vn -1.0000 -0.0000 -0.0000
vn -0.0000 1.0000 -0.0000
vn -0.0000 -1.0000 -0.0000
vn -0.0000 0.7071 -0.7071
vn -0.0000 -0.7071 0.7071
vn -0.0000 0.7071 0.7071
vn -0.0000 -0.7071 -0.7071
usemtl thresher
f 4/1/1 7/2/1 5/3/1 2/4/1
f 3/5/2 4/1/2 2/4/2 1/6/2
f 8/7/3 3/8/3 1/9/3 6/10/3
f 7/2/4 8/7/4 6/10/4 5/3/4
f 6/11/5 1/12/5 2/4/5 5/3/5
f 7/10/6 4/3/6 3/11/6 8/13/6
f 12/14/1 15/15/1 13/16/1 10/17/1
f 11/18/2 12/14/2 10/17/2 9/19/2
f 16/20/3 11/21/3 9/22/3 14/23/3
f 15/15/4 16/20/4 14/23/4 13/16/4
f 14/24/5 9/25/5 10/26/5 13/27/5
f 20/28/1 23/29/1 21/30/1 18/31/1
f 19/32/2 20/28/2 18/31/2 17/33/2
f 24/34/3 19/35/3 17/36/3 22/37/3
f 23/29/4 24/34/4 22/37/4 21/30/4
f 22/38/5 17/39/5 18/31/5 21/30/5
f 28/40/7 31/41/7 29/4/7 26/27/7
f 32/4/8 27/27/8 25/40/8 30/41/8
f 36/40/1 39/41/1 37/4/1 34/27/1
f 40/4/3 35/27/3 33/40/3 38/41/3
f 38/4/9 33/27/9 41/40/9 43/41/9
f 39/41/10 36/40/10 42/27/10 44/4/10
f 43/4/5 41/27/5 45/40/5 47/41/5
f 44/41/6 42/40/6 46/27/6 48/4/6
f 52/42/1 55/43/1 53/44/1 50/45/1
f 51/46/2 52/42/2 50/45/2 49/47/2
f 56/48/3 51/49/3 49/50/3 54/51/3
f 55/43/4 56/48/4 54/51/4 53/44/4
f 54/52/5 49/53/5 50/45/5 53/44/5
f 60/42/1 63/43/1 61/44/1 58/45/1
f 59/46/2 60/42/2 58/45/2 57/47/2
f 64/48/3 59/49/3 57/50/3 62/51/3
f 63/43/4 64/48/4 62/51/4 61/44/4
f 62/52/5 57/53/5 58/45/5 61/44/5
f 68/42/1 71/43/1 69/44/1 66/45/1
f 67/46/2 68/42/2 66/45/2 65/47/2
f 72/48/3 67/49/3 65/50/3 70/51/3
f 71/43/4 72/48/4 70/51/4 69/44/4
f 70/52/5 65/53/5 66/45/5 69/44/5
f 76/42/1 79/43/1 77/44/1 74/45/1
f 75/46/2 76/42/2 74/45/2 73/47/2
f 80/48/3 75/49/3 73/50/3 78/51/3
f 79/43/4 80/48/4 78/51/4 77/44/4
f 78/52/5 73/53/5 74/45/5 77/44/5
f 84/54/1 87/55/1 85/56/1 82/57/1
f 88/58/3 83/9/3 81/59/3 86/60/3
f 87/55/4 88/58/4 86/60/4 85/56/4
f 86/61/5 81/62/5 82/57/5 85/56/5
f 87/63/6 84/56/6 83/61/6 88/64/6
f 91/65/2 92/66/2 90/67/2 89/68/2
f 96/69/3 91/70/3 89/71/3 94/72/3
f 95/73/4 96/74/4 94/75/4 93/76/4
f 94/77/5 89/78/5 90/67/5 93/79/5
f 95/79/6 92/67/6 91/78/6 96/77/6
f 100/80/1 103/81/1 101/82/1 98/83/1
f 99/80/2 100/80/2 98/83/2 97/83/2
f 104/84/3 99/46/3 97/85/3 102/86/3
f 103/81/4 104/84/4 102/86/4 101/82/4
f 108/80/1 111/81/1 109/82/1 106/83/1
f 107/80/2 108/80/2 106/83/2 105/83/2
f 112/84/3 107/46/3 105/85/3 110/86/3
f 111/81/4 112/84/4 110/86/4 109/82/4
f 116/40/1 119/87/1 117/88/1 114/89/1
f 115/87/2 116/90/2 114/91/2 113/88/2
f 120/87/3 115/40/3 113/89/3 118/88/3
f 118/25/5 113/92/5 114/90/5 117/26/5
f 122/40/4 125/87/4 123/88/4 121/89/4
f 119/87/1 122/90/1 121/91/1 117/88/1
f 126/87/2 119/40/2 117/89/2 124/88/2
f 124/25/5 117/92/5 121/90/5 123/26/5
f 125/87/4 131/90/4 129/91/4 123/88/4
f 128/87/1 125/40/1 123/89/1 127/88/1
f 131/40/3 132/87/3 130/88/3 129/89/3
f 130/26/5 127/25/5 123/92/5 129/90/5
f 134/40/2 115/87/2 113/88/2 133/89/2
f 132/87/3 134/90/3 133/91/3 130/88/3
f 136/87/4 132/40/4 130/89/4 135/88/4
f 135/25/5 130/92/5 133/90/5 113/26/5
f 37/93/4 39/94/4 157/95/4
f 140/96/1 17/97/1 116/98/1 138/99/1
f 139/49/2 140/96/2 138/99/2 137/100/2
f 141/101/3 139/65/3 137/102/3 134/103/3
f 134/104/5 137/105/5 138/99/5 116/98/5
f 17/103/6 140/98/6 139/104/6 141/106/6
f 36/93/2 34/94/2 156/95/2
f 34/94/2 155/107/2 156/95/2
f 155/107/2 41/108/2 156/95/2
f 41/108/2 154/109/2 156/95/2
f 154/109/2 153/110/2 156/95/2
f 153/110/2 46/111/2 156/95/2
f 46/111/2 152/112/2 156/95/2
f 152/112/2 36/93/2 156/95/2
f 39/94/4 149/107/4 157/95/4
f 149/107/4 48/108/4 157/95/4
f 48/108/4 150/109/4 157/95/4
f 150/109/4 151/110/4 157/95/4
f 151/110/4 43/111/4 157/95/4
f 43/111/4 47/112/4 157/95/4
f 47/112/4 37/93/4 157/95/4
