# Blender 3.6.0
# www.blender.org
mtllib fleshing_machine.mtl



o base
v 1.937500 0.750000 1.000000
v 1.937500 0.000000 1.000000
v 1.937500 0.000000 0.000000
v 1.562500 0.750000 1.000000
v 1.562500 0.000000 0.000000
v 1.562500 0.000000 1.000000
v 1.937500 1.000000 0.750000
v 1.937500 1.000000 -0.000000
v 1.562500 1.000000 -0.000000
v 1.562500 1.000000 0.750000
v 1.937500 0.000000 0.750000
v 0.000000 0.000000 1.000000
v 0.000000 0.000000 0.000000
v 0.000000 0.750000 1.000000
v 0.000000 1.000000 0.750000
v 0.000000 1.000000 -0.000000
v 0.000000 0.000000 0.750000
v 0.250000 0.000000 1.000000
v 0.250000 0.000000 0.000000
v 0.250000 0.750000 1.000000
v 0.250000 1.000000 0.750000
v 0.250000 1.000000 -0.000000
v 0.250000 0.000000 0.750000
v 1.562500 0.000000 0.750000
v 1.562500 0.187500 0.875000
v 1.562500 0.187500 0.687500
v 1.562500 0.062500 0.875000
v 1.562500 0.062500 0.687500
v 0.250000 0.187500 0.687500
v 0.250000 0.187500 0.875000
v 0.250000 0.062500 0.687500
v 0.250000 0.062500 0.875000
v 1.562500 1.000000 0.125000
v 1.562500 0.312500 0.125000
v 1.562500 0.312500 -0.000000
v 0.250000 1.000000 0.125000
v 0.250000 0.312500 -0.000000
v 0.250000 0.312500 0.125000
v 1.562500 0.375000 1.000000
v 1.562500 0.375000 0.125000
v 1.562500 0.312500 1.000000
v 0.250000 0.375000 0.125000
v 0.250000 0.375000 1.000000
v 0.250000 0.312500 1.000000
v 2.000000 0.687500 0.687500
v 2.000000 0.687500 0.312500
v 2.000000 0.312500 0.687500
v 2.000000 0.312500 0.312500
v 1.937500 0.687500 0.312500
v 1.937500 0.687500 0.687500
v 1.937500 0.312500 0.312500
v 1.937500 0.312500 0.687500
v 1.562500 1.000000 0.625000
v 1.562500 0.875000 0.625000
v 1.562500 0.875000 0.125000
v 0.250000 1.000000 0.625000
v 0.250000 0.875000 0.125000
v 0.250000 0.875000 0.625000
vt -31.656250 0.000000
vt -31.750000 0.000000
vt -31.750000 0.187500
vt -31.656250 0.187500
vt -31.562500 0.000000
vt -31.656250 0.250000
vt -31.562500 0.250000
vt -31.843750 0.593750
vt -31.750000 0.593750
vt -31.750000 0.500000
vt -32.000000 1.000000
vt -32.000000 0.000000
vt -32.000000 0.250000
vt -31.937500 0.250000
vt -31.937500 0.500000
vt -32.000000 0.437500
vt -31.750000 0.250000
vt -31.843750 0.500000
vt -31.937500 0.000000
vt -32.000000 0.187500
vt -31.687500 0.250000
vt -31.750000 0.437500
vt -31.687500 0.437500
vt -31.687500 0.500000
vt -31.625000 0.500000
vt -31.625000 0.250000
vt -31.687500 0.515625
vt -31.750000 0.515625
vt -31.750000 0.421875
vt -31.687500 0.421875
vt -31.328125 0.328125
vt -31.328125 0.656250
vt -31.359375 0.656250
vt -31.359375 0.328125
vt -31.406250 0.656250
vt -31.406250 0.328125
vt -31.390625 0.000000
vt -31.390625 0.328125
vt -31.562500 0.328125
vt -31.218750 0.000000
vt -31.218750 0.328125
vt -31.250000 0.328125
vt -31.250000 0.000000
vt -31.468750 0.656250
vt -31.468750 0.328125
vt -31.453125 0.328125
vt -31.453125 0.656250
vt -31.625000 0.656250
vt -31.625000 0.328125
vt -31.406250 0.000000
vt -31.906250 0.578125
vt -31.906250 0.593750
vt -32.000000 0.593750
vt -32.000000 0.578125
vt -32.000000 0.500000
vt -31.906250 0.500000
vt -31.921875 0.500000
vt -31.921875 0.593750
vt -31.906250 0.515625
vt -32.000000 0.515625
vt -31.984375 0.500000
vt -31.984375 0.593750
vt -32.000000 0.984375
vt -31.984375 0.984375
vt -31.984375 1.000000
vt -31.375000 0.000000
vt -31.375000 0.328125
vn -0.0000 -0.0000 1.0000
vn -0.0000 -1.0000 -0.0000
vn -0.0000 1.0000 -0.0000
vn -0.0000 0.7071 0.7071
vn -0.0000 -0.0000 -1.0000
vn -0.0000 -0.0000 -0.0000
vn 1.0000 -0.0000 -0.0000
vn 1.0000 0.0001 -0.0000
vn -1.0000 -0.0000 -0.0000
vn -0.0003 0.7071 0.7071
vn -0.0003 -0.9239 -0.3827
usemtl base
f 6/1/1 2/2/1 1/3/1 4/4/1
f 5/5/2 3/1/2 2/6/2 6/7/2
f 10/1/3 7/2/3 8/3/3 9/4/3
f 10/8/4 4/9/4 1/10/4
f 8/7/5 3/5/5 5/1/5 9/6/5
f 3/5/1 8/7/1 8/7/1 3/5/1
f 7/11/6 8/11/6 8/11/6 7/11/6
f 1/11/1 7/11/1 7/11/1 1/11/1
f 2/11/1 1/11/1 1/11/1 2/11/1
f 8/7/1 3/5/1 3/5/1 8/7/1
f 2/12/6 3/12/6 3/12/6 2/12/6
f 8/11/6 7/11/6 7/11/3 8/11/5
f 2/12/6 3/12/6 3/12/6 2/12/6
f 7/11/1 1/11/1 1/11/1 7/11/1
f 1/11/1 2/11/1 2/11/1 1/11/1
f 7/11/1 1/11/1 1/11/1 7/11/1
f 1/11/1 2/11/1 2/11/1 1/11/1
f 3/5/1 8/7/1 8/7/1 3/5/1
f 8/11/6 7/11/6 7/11/6 8/11/6
f 2/13/7 11/14/7 7/15/7 1/16/7
f 8/10/7 7/15/7 11/14/7 3/17/7
f 7/11/8 10/11/1 10/11/9
f 1/10/4 7/18/4 10/8/4
f 10/11/10 4/11/1 4/11/11
f 12/13/9 14/16/9 15/15/9 17/14/9
f 16/10/9 13/17/9 17/14/9 15/15/9
f 18/12/7 23/19/7 21/14/7 20/20/7
f 22/17/7 21/14/7 23/19/7 19/2/7
f 6/12/9 4/20/9 10/14/9 24/19/9
f 9/17/9 5/2/9 24/19/9 10/14/9
f 12/21/1 18/17/1 20/22/1 14/23/1
f 13/24/2 19/25/2 18/26/2 12/21/2
f 15/17/3 21/21/3 22/23/3 16/22/3
f 13/24/5 16/21/5 22/26/5 19/25/5
f 14/27/4 20/28/4 21/29/4 15/30/4
f 28/31/5 31/32/5 29/33/5 26/34/5
f 32/31/1 27/32/1 25/33/1 30/34/1
f 30/34/3 25/33/3 26/35/3 29/36/3
f 31/34/2 28/33/2 27/35/2 32/36/2
f 35/37/5 37/38/5 22/39/5 9/5/5
f 36/40/3 33/41/3 9/42/3 22/43/3
f 37/43/2 35/42/2 34/41/2 38/40/2
f 44/44/1 41/45/1 39/46/1 43/47/1
f 43/36/3 39/35/3 40/48/3 42/49/3
f 38/49/2 34/48/2 41/35/2 44/36/2
f 36/5/1 42/50/1 40/36/1 33/39/1
f 48/51/5 51/52/5 49/53/5 46/54/5
f 47/55/7 48/56/7 46/52/7 45/53/7
f 52/57/1 47/56/1 45/52/1 50/58/1
f 50/56/3 45/59/3 46/60/3 49/55/3
f 51/55/2 48/61/2 47/62/2 52/53/2
f 55/63/5 57/64/5 36/65/5 33/11/5
f 54/63/7 55/64/7 33/65/7 53/11/7
f 58/36/1 54/50/1 53/66/1 56/67/1
f 57/63/9 58/64/9 56/65/9 36/11/9
f 56/67/3 53/66/3 33/43/3 36/42/3
f 57/42/2 55/43/2 54/66/2 58/67/2
