# Made in Blockbench 5.1.5
mtllib fleshing_machine.mtl

o base
v 1.5625 0 1
v 1.9375 0 1
v 1.9375 0.75 1
v 1.5625 0.75 1
v 1.5625 0 0
v 1.9375 0 0
v 1.5625 1 0.75
v 1.9375 1 0.75
v 1.9375 1 0
v 1.5625 1 0
v 1.9375 0 0.75
v 0 0 1
v 0 0.75 1
v 0 1 0.75
v 0 0 0.75
v 0 1 0
v 0 0 0
v 0.25 0 1
v 0.25 0 0.75
v 0.25 1 0.75
v 0.25 0.75 1
v 0.25 1 0
v 0.25 0 0
v 1.5625 0 0.75
v 1.5625 0.0625 0.6875
v 0.25 0.0625 0.6875
v 0.25 0.1875 0.6875
v 1.5625 0.1875 0.6875
v 0.25 0.0625 0.875
v 1.5625 0.0625 0.875
v 1.5625 0.1875 0.875
v 0.25 0.1875 0.875
v 1.5625 0.3125 0
v 0.25 0.3125 0
v 0.25 1 0.125
v 1.5625 1 0.125
v 1.5625 0.3125 0.125
v 0.25 0.3125 0.125
v 0.25 0.3125 1
v 1.5625 0.3125 1
v 1.5625 0.375 1
v 0.25 0.375 1
v 1.5625 0.375 0.125
v 0.25 0.375 0.125
v 2 0.3125 0.3125
v 1.9375 0.3125 0.3125
v 1.9375 0.6875 0.3125
v 2 0.6875 0.3125
v 2 0.3125 0.6875
v 2 0.6875 0.6875
v 1.9375 0.3125 0.6875
v 1.9375 0.6875 0.6875
v 1.5625 0.875 0.125
v 0.25 0.875 0.125
v 1.5625 0.875 0.625
v 1.5625 1 0.625
v 0.25 0.875 0.625
v 0.25 1 0.625
vt 0.25 0
vt 0.34375 0
vt 0.34375 0.1875
vt 0.25 0.1875
vt 0.34375 0
vt 0.4375 0
vt 0.4375 0.25
vt 0.34375 0.25
vt 0.25 0
vt 0.34375 0
vt 0.34375 0.1875
vt 0.25 0.1875
vt 0.15625 0.5937500000000002
vt 0.15625 0.5053625000000002
vt 0.25 0.5053625000000002
vt 0.34375 0.25
vt 0.34375 0
vt 0.4375 0
vt 0.4375 0.25
vt -7.890625 0.75
vt -7.890625 0.8125
vt -7.890625 0.8125
vt -7.890625 0.75
vt -8 1
vt -8 1
vt -8 1
vt -8 1
vt -8 1
vt -8 1
vt -8 1
vt -8 1
vt -8 1
vt -8 1
vt -8 1
vt -8 1
vt -7.890625 0.8125
vt -7.890625 0.75
vt -7.890625 0.75
vt -7.890625 0.8125
vt -8 0.75
vt -8 0.75
vt -8 0.75
vt -8 0.75
vt -8 1
vt -8 1
vt -8 1
vt -8 1
vt -8 0.75
vt -8 0.75
vt -8 0.75
vt -8 0.75
vt -8 1
vt -8 1
vt -8 1
vt -8 1
vt -8 1
vt -8 1
vt -8 1
vt -8 1
vt -8 1
vt -8 1
vt -8 1
vt -8 1
vt -8 1
vt -8 1
vt -8 1
vt -8 1
vt -7.890625 0.75
vt -7.890625 0.8125
vt -7.890625 0.8125
vt -7.890625 0.75
vt -8 1
vt -8 1
vt -8 1
vt -8 1
vt 0 0.25
vt 0.0625 0.25
vt 0.0625 0.5
vt 0 0.4375
vt 0.25 0.5
vt 0.0625 0.5
vt 0.0625 0.25
vt 0.25 0.25
vt -8 1
vt -8 1
vt -8 1
vt 0.25 0.5053625000000002
vt 0.25 0.5937500000000002
vt 0.15625 0.5937500000000002
vt -8 1
vt -8 1
vt -8 1
vt 0 0.25
vt 0 0.4375
vt 0.0625 0.5
vt 0.0625 0.25
vt 0.25 0.5
vt 0.25 0.25
vt 0.0625 0.25
vt 0.0625 0.5
vt 0 0
vt 0.0625 0
vt 0.0625 0.25
vt 0 0.1875
vt 0.25 0.25
vt 0.0625 0.25
vt 0.0625 0
vt 0.25 0
vt 0 0
vt 0 0.1875
vt 0.0625 0.25
vt 0.0625 0
vt 0.25 0.25
vt 0.25 0
vt 0.0625 0
vt 0.0625 0.25
vt 0.25 0.25
vt 0.3125 0.25
vt 0.3125 0.4375
vt 0.25 0.4375
vt 0.3125 0.25
vt 0.375 0.25
vt 0.375 0.5
vt 0.3125 0.5
vt 0.25 0.25
vt 0.3125 0.25
vt 0.3125 0.4375
vt 0.25 0.4375
vt 0.375 0.25
vt 0.375 0.5
vt 0.3125 0.5
vt 0.3125 0.25
vt 0.25 0.42723750000000016
vt 0.3125 0.42723750000000016
vt 0.3125 0.5156250000000002
vt 0.25 0.5156250000000002
vt 0.609375 0.65625
vt 0.609375 0.328125
vt 0.640625 0.328125
vt 0.640625 0.65625
vt 0.609375 0.65625
vt 0.609375 0.328125
vt 0.640625 0.328125
vt 0.640625 0.65625
vt 0.59375 0.65625
vt 0.59375 0.328125
vt 0.640625 0.328125
vt 0.640625 0.65625
vt 0.59375 0.65625
vt 0.59375 0.328125
vt 0.640625 0.328125
vt 0.640625 0.65625
vt 0.609375 0
vt 0.609375 0.328125
vt 0.4375 0.328125
vt 0.4375 0
vt 0.78125 0.328125
vt 0.78125 0
vt 0.75 0
vt 0.75 0.328125
vt 0.75 0.328125
vt 0.75 0
vt 0.78125 0
vt 0.78125 0.328125
vt 0.46875 0.328125
vt 0.46875 0.65625
vt 0.453125 0.65625
vt 0.453125 0.328125
vt 0.453125 0.65625
vt 0.453125 0.328125
vt 0.671875 0.328125
vt 0.671875 0.65625
vt 0.671875 0.328125
vt 0.671875 0.65625
vt 0.453125 0.65625
vt 0.453125 0.328125
vt -7.890625 0.75
vt -7.8515625 0.75
vt -7.8515625 0.83203125
vt -7.890625 0.83203125
vt 0.234375 0.5
vt 0.25 0.5
vt 0.25 0.59375
vt 0.234375 0.59375
vt 0 0.5
vt 0.09375 0.5
vt 0.09375 0.59375
vt 0 0.59375
vt 0.234375 0.5
vt 0.25 0.5
vt 0.25 0.59375
vt 0.234375 0.59375
vt 0.234375 0.5
vt 0.25 0.5
vt 0.25 0.59375
vt 0.234375 0.59375
vt 0.234375 0.5
vt 0.25 0.5
vt 0.25 0.59375
vt 0.234375 0.59375
vt -8 0.99609375
vt -7.99609375 0.99609375
vt -7.99609375 1
vt -8 1
vt -8 0.99609375
vt -7.99609375 0.99609375
vt -7.99609375 1
vt -8 1
vt 0.78125 0
vt 0.78125 0.328125
vt 0.75 0.328125
vt 0.75 0
vt -8 0.99609375
vt -7.99609375 0.99609375
vt -7.99609375 1
vt -8 1
vt 0.625 0.328125
vt 0.625 0
vt 0.75 0
vt 0.75 0.328125
vt 0.75 0
vt 0.75 0.328125
vt 0.625 0.328125
vt 0.625 0
vn 0 0 1
vn 0 -1 0
vn 0 1 0
vn 0 0.7071067811865476 0.7071067811865476
vn 0 0 -1
vn 0 0 0
vn 0 0 0
vn 0 0 0
vn 0 0 0
vn 0 0 0
vn 0 0 0
vn 0 0 0
vn 0 0 0
vn 0 0 0
vn 0 0 0
vn 0 0 0
vn 0 0 0
vn 0 0 0
vn 0 0 0
vn 1 0 0
vn 1 0 0
vn 0 0 0
vn 0 0.7071067811865476 0.7071067811865476
vn 0 0 0
vn -1 0 0
vn -1 0 0
vn 1 0 0
vn 1 0 0
vn -1 0 0
vn -1 0 0
vn 0 0 1
vn 0 -1 0
vn 0 1 0
vn 0 0 -1
vn 0 0.7071067811865476 0.7071067811865476
vn 0 0 -1
vn 0 0 1
vn 0 1 0
vn 0 -1 0
vn 0 0 -1
vn 0 1 0
vn 0 -1 0
vn 0 0 1
vn 0 1 0
vn 0 -1 0
vn 0 0 1
vn 0 0 -1
vn 1 0 0
vn 0 0 1
vn 0 1 0
vn 0 -1 0
vn 0 0 -1
vn 1 0 0
vn 0 0 1
vn -1 0 0
vn 0 1 0
vn 0 -1 0
usemtl fleshing_machine
f 1/1/1 2/2/1 3/3/1 4/4/1
f 5/5/2 6/6/2 2/7/2 1/8/2
f 7/9/3 8/10/3 9/11/3 10/12/3
f 7/13/4 4/14/4 3/15/4
f 9/16/5 6/17/5 5/18/5 10/19/5
f 6/20/6 9/21/6 9/21/6 6/20/6
f 8/24/7 9/25/7 9/25/7 8/24/7
f 3/28/8 8/29/8 8/29/8 3/28/8
f 2/32/9 3/33/9 3/33/9 2/32/9
f 9/36/10 6/37/10 6/37/10 9/36/10
f 2/40/11 6/41/11 6/41/11 2/40/11
f 9/44/12 8/45/12 8/45/12 9/44/12
f 2/48/13 6/49/13 6/49/13 2/48/13
f 8/52/14 3/53/14 3/53/14 8/52/14
f 3/56/15 2/57/15 2/57/15 3/56/15
f 8/60/16 3/61/16 3/61/16 8/60/16
f 3/64/17 2/65/17 2/65/17 3/64/17
f 6/68/18 9/69/18 9/69/18 6/68/18
f 9/72/19 8/73/19 8/73/19 9/72/19
f 2/76/20 11/77/20 8/78/20 3/79/20
f 9/80/21 8/81/21 11/82/21 6/83/21
f 8/84/22 7/85/22 7/85/22
f 3/87/23 8/88/23 7/89/23
f 7/90/24 4/91/24 4/91/24
f 12/93/25 13/94/25 14/95/25 15/96/25
f 16/97/26 17/98/26 15/99/26 14/100/26
f 18/101/27 19/102/27 20/103/27 21/104/27
f 22/105/28 20/106/28 19/107/28 23/108/28
f 1/109/29 4/110/29 7/111/29 24/112/29
f 10/113/30 5/114/30 24/115/30 7/116/30
f 12/117/31 18/118/31 21/119/31 13/120/31
f 17/121/32 23/122/32 18/123/32 12/124/32
f 14/125/33 20/126/33 22/127/33 16/128/33
f 17/129/34 16/130/34 22/131/34 23/132/34
f 13/133/35 21/134/35 20/135/35 14/136/35
f 25/137/36 26/138/36 27/139/36 28/140/36
f 29/141/37 30/142/37 31/143/37 32/144/37
f 32/145/38 31/146/38 28/147/38 27/148/38
f 26/149/39 25/150/39 30/151/39 29/152/39
f 33/153/40 34/154/40 22/155/40 10/156/40
f 35/157/41 36/158/41 10/159/41 22/160/41
f 34/161/42 33/162/42 37/163/42 38/164/42
f 39/165/43 40/166/43 41/167/43 42/168/43
f 42/169/44 41/170/44 43/171/44 44/172/44
f 38/173/45 37/174/45 40/175/45 39/176/45
f 35/177/46 44/178/46 43/179/46 36/180/46
f 45/181/47 46/182/47 47/183/47 48/184/47
f 49/185/48 45/186/48 48/187/48 50/188/48
f 51/189/49 49/190/49 50/191/49 52/192/49
f 52/193/50 50/194/50 48/195/50 47/196/50
f 46/197/51 45/198/51 49/199/51 51/200/51
f 53/201/52 54/202/52 35/203/52 36/204/52
f 55/205/53 53/206/53 36/207/53 56/208/53
f 57/209/54 55/210/54 56/211/54 58/212/54
f 54/213/55 57/214/55 58/215/55 35/216/55
f 58/217/56 56/218/56 36/219/56 35/220/56
f 54/221/57 53/222/57 55/223/57 57/224/57